<svg viewBox="0 0 309 183.98" xmlns="http://www.w3.org/2000/svg"><g fill="#000002"><path d="m33.74 34.53v.73a1.08 1.08 0 0 1 -1.18 1.18h-1.06a1.47 1.47 0 0 0 -.65.19l-1.24.66a1 1 0 0 0 -.58.89 1 1 0 0 0 .58.9l1.22.64a1.5 1.5 0 0 0 .67.15h1.06a1.08 1.08 0 0 1 1.18 1.13v.73c0 .12-.08.18-.21.18h-1.53a4.8 4.8 0 0 1 -2.7-.86l-2.3-1.45a1.55 1.55 0 0 1 -.83-1.45 1.59 1.59 0 0 1 .83-1.44l2.22-1.49a5.27 5.27 0 0 1 2.78-.86h1.49c.17 0 .25.06.25.17z"/><path d="m46 31.58-.41 1c-.07.16-.17.36-.28.57s-.31.59-.58 1.08l-5.48 10.03a3.8 3.8 0 0 1 -.92 1.18.59.59 0 0 1 -.79 0l-.54-.44c-.09-.07-.06-.26.06-.54l.41-1 .27-.57c.11-.21.31-.59.58-1.08l5.48-10.07a3.44 3.44 0 0 1 .91-1.14.6.6 0 0 1 .8-.06l.49.46c.13.1.11.3 0 .58z"/><path d="m49.31 41.77v-.77a1.07 1.07 0 0 1 1.17-1.17h1.06a1.4 1.4 0 0 0 .66-.2l1.23-.63a1 1 0 0 0 .58-.9 1 1 0 0 0 -.58-.89l-1.22-.64a1.47 1.47 0 0 0 -.67-.15h-1.06a1.08 1.08 0 0 1 -1.17-1.18v-.73c0-.11.07-.17.21-.17h1.48a4.72 4.72 0 0 1 2.69.86l2.37 1.49a1.53 1.53 0 0 1 .83 1.44 1.59 1.59 0 0 1 -.83 1.45l-2.22 1.49a5.32 5.32 0 0 1 -2.84.93h-1.48q-.21 0-.21-.23z"/></g><g fill="#061876"><path d="m122.7 124.63v56.11a3.24 3.24 0 0 1 -3.24 3.24h-6.37a3.24 3.24 0 0 1 -3.23-3.24v-56.11a3.24 3.24 0 0 0 -3.24-3.24h-14.93a3.24 3.24 0 0 1 -3.24-3.24v-4.33a3.24 3.24 0 0 1 3.24-3.24h49.18a3.24 3.24 0 0 1 3.24 3.24v4.33a3.24 3.24 0 0 1 -3.24 3.24h-14.93a3.24 3.24 0 0 0 -3.24 3.24z"/><path d="m153.82 180.74v-66.92a3.24 3.24 0 0 1 3.24-3.24h39.7a3.24 3.24 0 0 1 3.24 3.24v4.33a3.24 3.24 0 0 1 -3.24 3.24h-26.86a3.24 3.24 0 0 0 -3.23 3.24v13.71a3.23 3.23 0 0 0 3.23 3.23h21.77a3.24 3.24 0 0 1 3.23 3.24v4a3.23 3.23 0 0 1 -3.23 3.23h-21.77a3.24 3.24 0 0 0 -3.23 3.24v14.63a3.23 3.23 0 0 0 3.23 3.23h28.39a3.24 3.24 0 0 1 3.24 3.24v4.33a3.24 3.24 0 0 1 -3.24 3.24h-41.23a3.24 3.24 0 0 1 -3.24-3.21z"/><path d="m229.78 140.86 25-29.15a3.27 3.27 0 0 1 2.46-1.13h6.76a3.24 3.24 0 0 1 2.43 5.38l-20.17 22.89a3.24 3.24 0 0 0 -.32 3.85l22.58 36.3a3.24 3.24 0 0 1 -2.75 4.95h-6.93a3.23 3.23 0 0 1 -2.77-1.56l-17.81-29.48a3.24 3.24 0 0 0 -5.17-.5l-8.16 9a3.25 3.25 0 0 0 -.84 2.18v17.12a3.24 3.24 0 0 1 -3.24 3.24h-6.37a3.24 3.24 0 0 1 -3.24-3.24v-66.89a3.24 3.24 0 0 1 3.24-3.24h6.37a3.24 3.24 0 0 1 3.24 3.24v24.93a3.24 3.24 0 0 0 5.69 2.11z"/></g><g fill="#06f"><path d="m281.15 133h6.67a2.43 2.43 0 0 1 2.43 2.33c.06 1.25.1 2.49.1 3.69v.05a1 1 0 0 0 1.75.55c3.22-4.69 7.88-7.94 13.74-7.94h.82a2.44 2.44 0 0 1 2.34 2.43v7.08a2.43 2.43 0 0 1 -2.58 2.41h-.48c-8.76 0-14.78 8.87-14.78 18.45v19.49a2.43 2.43 0 0 1 -2.43 2.43h-7.58a2.43 2.43 0 0 1 -2.43-2.43v-46.1a2.43 2.43 0 0 1 2.43-2.44z"/><path d="m41.52 0c21.51 0 38 16.62 38 38s-16.21 38-38 38-38-16.62-38-38c-.02-21.08 16.29-38 38-38zm0 64.22c14.58 0 25.08-11.31 25.08-26.22s-10.5-26.17-25.08-26.17-25.18 11.41-25.18 26.17 10.66 26.22 25.18 26.22z"/><path d="m92.5 23.75h5.07a3.25 3.25 0 0 1 3.24 3.1l.07 1.69a31.07 31.07 0 0 1 -.2 3.57h.2c2.45-5.1 9.38-9.68 17.23-9.68 13.35 0 23.75 10.6 23.75 26.81 0 16.41-10.4 26.81-23.45 26.81-7.85 0-14.17-4.18-16.82-8.87h-.2a21.79 21.79 0 0 1 .31 4.18v22.55a3.24 3.24 0 0 1 -3.24 3.24h-6a3.24 3.24 0 0 1 -3.24-3.24v-66.91a3.24 3.24 0 0 1 3.28-3.25zm37.5 25.49c0-9.48-5.7-16.21-14-16.21-6.76-.03-14 5.2-14 16.21s7.24 16.2 14.07 16.2c8.26 0 13.93-6.62 13.93-16.2z"/><path d="m200.4 46.28c0 .86 0 1.71-.09 2.48a3.24 3.24 0 0 1 -3.23 3h-29.82a2.45 2.45 0 0 0 -2.38 3c1.48 6.76 7.2 10.69 15.44 10.69a43.56 43.56 0 0 0 13.76-2.34 3.23 3.23 0 0 1 4.28 3.07v3.32a3.45 3.45 0 0 1 -2 3.5 45.55 45.55 0 0 1 -17 3c-16.92 0-27.83-11.12-27.83-26.81 0-15.4 11.12-26.81 25.49-26.81 15.33.05 23.38 11.26 23.38 23.9zm-23.55-13.86c-6.1 0-10.16 3.94-11.7 9a2.44 2.44 0 0 0 2.32 3.17h18.27a2.44 2.44 0 0 0 2.4-2.86c-.95-5.2-4.8-9.31-11.29-9.31z"/><path d="m218.55 23.75a3.23 3.23 0 0 1 3.23 3.09l.16 3.44a24.44 24.44 0 0 1 -.41 3.67h.21a20.84 20.84 0 0 1 18.45-11.52c12 0 17.63 7.23 17.63 20.38v28.67a3.24 3.24 0 0 1 -3.23 3.24h-6a3.24 3.24 0 0 1 -3.24-3.24v-26.48c0-5.91-1.43-11.21-8.36-11.21-8.46 0-14.48 6.73-14.48 15.7v22a3.24 3.24 0 0 1 -3.23 3.24h-6a3.24 3.24 0 0 1 -3.24-3.24v-44.49a3.24 3.24 0 0 1 3.24-3.24z"/></g><path d="m16.34 38a26.77 26.77 0 0 1 7.23-18.74l-8.49-8.86a38 38 0 0 0 -11.58 27.6 38 38 0 0 0 10.36 26.5l8.94-8.5a26.87 26.87 0 0 1 -6.46-18z" fill="#0fc" stroke="#0fc" stroke-miterlimit="10" stroke-width="7"/></svg>