<svg viewBox="0 0 602.09 120" xmlns="http://www.w3.org/2000/svg"><g fill="#06f"><path d="m50.47 0c26.57 0 47 20.52 47 47s-20 47-47 47-47-20.53-47-47c.03-26.1 20.18-47 47-47zm0 79.33c18 0 31-14 31-32.36s-13-32.36-31-32.36-31.1 14.1-31.1 32.39 13.09 32.33 31.1 32.33z"/><path d="m113.43 29.34h6.27a4 4 0 0 1 4 3.83l.09 2.09a37 37 0 0 1 -.25 4.4h.25c3-6.29 11.58-12 21.28-12 16.49 0 29.34 13.1 29.34 33.12 0 20.27-12.85 33.12-29 33.12-9.7 0-17.51-5.17-20.78-11h-.25a27.18 27.18 0 0 1 .38 5.16v27.94a4 4 0 0 1 -4 4h-7.37a4 4 0 0 1 -4-4v-82.66a4 4 0 0 1 4.04-4zm46.37 31.48c0-11.71-7.05-20-17.25-20-8.44 0-17.38 6.42-17.38 20s8.94 20 17.38 20c10.2.02 17.25-8.17 17.25-20z"/><path d="m246.72 57.17c0 1.06-.05 2.11-.11 3.06a4 4 0 0 1 -4 3.74h-36.83a3 3 0 0 0 -2.93 3.66c1.82 8.35 8.89 13.21 19.07 13.21a53.85 53.85 0 0 0 17-2.89 4 4 0 0 1 5.29 3.78v4.12c0 2.25-.93 3.7-2.4 4.32a56.08 56.08 0 0 1 -21 3.77c-20.9 0-34.37-13.73-34.37-33.12 0-19 13.72-33.12 31.48-33.12 18.86 0 28.8 13.85 28.8 29.47zm-29.08-17.17c-7.54 0-12.55 4.88-14.46 11.08a3 3 0 0 0 2.82 3.92h22.58a3 3 0 0 0 3-3.53c-1.18-6.35-5.93-11.47-13.94-11.47z"/><path d="m269.14 29.34a4 4 0 0 1 4 3.81l.2 4.25a30.25 30.25 0 0 1 -.5 4.53h.25c2.52-5.79 10.83-14.23 22.79-14.23 14.86 0 21.78 8.94 21.78 25.19v35.41a4 4 0 0 1 -4 4h-7.36a4 4 0 0 1 -4-4v-32.77c0-7.3-1.76-13.85-10.32-13.85-10.46 0-17.88 8.31-17.88 19.39v27.23a4 4 0 0 1 -4 4h-7.37a4 4 0 0 1 -4-4v-55a4 4 0 0 1 4-4z"/></g><g fill="#061876"><path d="m372 19v69.3a4 4 0 0 1 -4 4h-7.9a4 4 0 0 1 -4-4v-69.3a4 4 0 0 0 -4-4h-18.45a4 4 0 0 1 -4-4v-5.36a4 4 0 0 1 4-4h60.75a4 4 0 0 1 4 4v5.36a4 4 0 0 1 -4 4h-18.4a4 4 0 0 0 -4 4z"/><path d="m410.4 88.3v-82.66a4 4 0 0 1 4-4h49.05a4 4 0 0 1 4 4v5.36a4 4 0 0 1 -4 4h-33.18a4 4 0 0 0 -4 4v16.92a4 4 0 0 0 4 4h26.88a4 4 0 0 1 4 4v5a4 4 0 0 1 -4 4h-26.88a4 4 0 0 0 -4 4v18.08a4 4 0 0 0 4 4h35.06a4 4 0 0 1 4 4v5.3a4 4 0 0 1 -4 4h-50.93a4 4 0 0 1 -4-4z"/><path d="m504.23 39 30.93-36a4 4 0 0 1 3-1.39h8.32a4 4 0 0 1 3 6.64l-24.88 28.3a4 4 0 0 0 -.4 4.76l27.88 44.88a4 4 0 0 1 -3.4 6.11h-8.55a4 4 0 0 1 -3.43-1.93l-21.99-36.37a4 4 0 0 0 -6.39-.62l-10.08 11.08a4 4 0 0 0 -1 2.69v21.15a4 4 0 0 1 -4 4h-7.87a4 4 0 0 1 -4-4v-82.66a4 4 0 0 1 4-4h7.87a4 4 0 0 1 4 4v30.79a4 4 0 0 0 6.99 2.57z"/></g><path d="m567.69 29.34h8.24a3 3 0 0 1 3 2.87c.07 1.55.12 3.08.12 4.56v.06a1.19 1.19 0 0 0 2.16.69c4-5.79 9.73-9.82 17-9.82h1a3 3 0 0 1 2.89 3v8.75a3 3 0 0 1 -3.19 3h-.59c-10.83 0-18.26 11-18.26 22.8v24.05a3 3 0 0 1 -3 3h-9.36a3 3 0 0 1 -3-3v-57a3 3 0 0 1 2.99-2.96z" fill="#06f"/><path d="m40.85 42.66v.9a1.33 1.33 0 0 1 -1.45 1.44h-1.31a1.8 1.8 0 0 0 -.81.24l-1.53.81a1.19 1.19 0 0 0 -.75 1.12 1.22 1.22 0 0 0 .71 1.1l1.51.79a1.77 1.77 0 0 0 .83.18h1.35a1.34 1.34 0 0 1 1.45 1.46v.9c0 .15-.09.22-.26.22h-1.84a5.88 5.88 0 0 1 -3.33-1.07l-2.92-1.84a1.88 1.88 0 0 1 -1-1.78 2 2 0 0 1 1-1.79l2.74-1.84a6.52 6.52 0 0 1 3.51-1.06h1.84c.17 0 .26.07.26.22z"/><path d="m56 39-.51 1.2c-.08.19-.21.44-.34.7s-.38.72-.72 1.33l-6.77 12.44a4.64 4.64 0 0 1 -1.14 1.46.73.73 0 0 1 -1 0l-.68-.56c-.11-.09-.08-.33.07-.68l.5-1.19.34-.7c.13-.26.39-.73.72-1.33l6.77-12.45a4.34 4.34 0 0 1 1.12-1.41.75.75 0 0 1 1-.06l.68.56c.12.11.09.35-.04.69z"/><path d="m60.08 51.6v-.9a1.35 1.35 0 0 1 1.46-1.46h1.3a1.74 1.74 0 0 0 .81-.23l1.53-.81a1.18 1.18 0 0 0 .72-1.11 1.2 1.2 0 0 0 -.72-1.1l-1.51-.79a1.75 1.75 0 0 0 -.83-.19h-1.3a1.34 1.34 0 0 1 -1.46-1.45v-.9c0-.15.1-.22.26-.22h1.84a5.92 5.92 0 0 1 3.33 1.06l2.93 1.84a1.91 1.91 0 0 1 1 1.79 2 2 0 0 1 -1 1.78l-2.74 1.84a6.51 6.51 0 0 1 -3.52 1.07h-1.84c-.16 0-.26-.07-.26-.22z"/><path d="m19.37 47a33 33 0 0 1 8.92-23.15l-10.49-11a46.88 46.88 0 0 0 -14.3 34.15 46.92 46.92 0 0 0 12.8 32.7l11-10.57a33.25 33.25 0 0 1 -7.93-22.13z" fill="#0fc" stroke="#0fc" stroke-miterlimit="10" stroke-width="7"/></svg>