<svg xmlns="http://www.w3.org/2000/svg" xmlns:xlink="http://www.w3.org/1999/xlink" viewBox="0 0 593 205"><defs><style>.cls-1{isolation:isolate;}.cls-2{font-size:31.91px;fill:#888988;font-family:Swiss721BT-LightExtended, Swiss721BT LightExtended;font-weight:300;}.cls-3{letter-spacing:-0.01em;}.cls-4{letter-spacing:-0.06em;}.cls-5,.cls-6{fill:#221714;}.cls-6,.cls-8{fill-rule:evenodd;}.cls-7{fill:url(#未命名的渐变_5);}.cls-8{fill:#fff;mix-blend-mode:screen;}</style><linearGradient id="未命名的渐变_5" x1="102.07" y1="197.35" x2="102.07" y2="7.52" gradientUnits="userSpaceOnUse"><stop offset="0" stop-color="#2975fe"/><stop offset="1" stop-color="#0cd5ff"/></linearGradient></defs><title>LOGO-SVG</title><g class="cls-1"><g id="图层_1" data-name="图层 1"><text class="cls-2" transform="translate(241.42 159.98) rotate(-90)"><tspan class="cls-3">Z</tspan><tspan x="17.26" y="0">en&amp;</tspan><tspan class="cls-4" x="70.26" y="0">T</tspan><tspan x="84.08" y="0">ao</tspan></text><rect class="cls-5" x="250.64" y="43.01" width="42.46" height="9.15"/><rect class="cls-5" x="408.36" y="43.01" width="37.95" height="9.15"/><polygon class="cls-5" points="250.64 72.01 284.07 72.01 284.07 79.05 250.99 79.05 250.99 159.12 260.14 159.12 260.14 88.19 267.65 88.19 267.65 159.12 276.79 159.12 276.79 106.67 284.07 106.67 284.07 159.12 293.21 159.12 293.21 97.53 276.79 97.53 276.79 88.19 293.21 88.19 293.21 62.87 250.64 62.87 250.64 72.01"/><path class="cls-5" d="M349.78,72h41.27V40.68H349.78Zm9.14-22.2h23V62.87h-23Z"/><path class="cls-5" d="M340.83,40.68H299.56V72h41.27Zm-9.15,22.19h-23V49.81h23Z"/><path class="cls-5" d="M299.56,130.49h40.77v7.16H299.62v9.14h40.71v12.33h9.14V146.79H391v-9.14H349.47v-7.16h41.58V77.35H299.56Zm9.14-9.14V108.49h31.63v12.86Zm40.77,0V108.49h32.44v12.86Zm32.44-22H349.47V86.49h32.44ZM340.33,86.49V99.35H308.7V86.49Z"/><path class="cls-6" d="M500.3,148.73c-10.58,2-34.72,15.32-34.72,15.32-28.21,11-42.79-9.87-42.79-9.87l-5.54,4.51c21.43,26.47,55.56,9.75,55.56,9.75,69.08-40.47,105.58-9.32,114.06-.81C548.69,129.28,500.3,148.73,500.3,148.73Z"/><path class="cls-6" d="M455.41,156.22c4.1,1.44,15.52-3.6,15.52-3.6,55.87-35.46,103.64-.42,112.86,8.75-57.29-57-118.93-12.92-118.93-12.92-3.83,8.23-9.45,7.77-9.45,7.77Z"/><path class="cls-6" d="M390.59,150.33C395,161.17,408,160.55,408,160.55c13.6,0,10.93-14,10.93-14a8.21,8.21,0,0,0-10.18-5.19h0a3.38,3.38,0,0,0-2.8,3.83c1.43,3.82,5.18,2.31,5.18,2.31l1.14-.34c2.32,5.87-3.21,7.5-3.21,7.5-13.17.42-13.79-10.27-13.79-10.27-1.1-15.31,13.63-12.58,13.63-12.58,2.59-20.67,16.28-19.67,16.28-19.67,19.61-2.1,17.22,17.15,17.22,17.15,20.86,1.78,15.4,14.78,15.4,14.78-3.35,10.78-13.06,2.68-13.06,2.68-1.78-1.61,2.53-3,2.53-3,5.26-1.23,2.83-4.31,2.83-4.31-2.66-3.65-8.67.52-8.67.52-10.47,6.92,3.17,14.31,3.17,14.31,15,6.72,19.43-7.47,19.43-7.47,4.44-19.27-15.68-21.9-15.68-21.9-1.28-19.68-22.58-18.54-22.58-18.54-6.65.18-11.41,2.21-14.73,5-6.16,5.13-8.13,14.7-8.13,14.7C384.32,131.34,390.59,150.33,390.59,150.33Z"/><path class="cls-5" d="M451.7,141.44h.19l-.19-.1Z"/><path class="cls-5" d="M451.7,71.49v57.22c3,1,9.78,9.53,12.17,12.73h19c13-2.46,24.36-10.7,39.7-7.44l-4.86-1.7h-56.9V80.63h78.91v31.59H480.91V100.85h47.26V91.7h-56.4v29.66h77.12V71.49H504.76V60.92h43.91V51.77H536.12V41H527v10.8H473.41V41h-9.14V51.77H451.72v9.15h43.9V71.49Z"/><path class="cls-5" d="M436.91,90H408.78v32.92c2.31-1.83,5.29-10.1,9.08-11l.07-12.78h28.12V62.87H408.72V72h28.19Z"/><path class="cls-7" d="M102.07,7.52A94.92,94.92,0,1,0,197,102.43,94.91,94.91,0,0,0,102.07,7.52Z"/><path class="cls-8" d="M173.25,49s15.56,23.19,8.66,42.88c-4.62,13.21-21.42,17.86-34.85,13.58-20.86-6.64-46.74-28.82-75-8.42-23.9,17.24-13.94,47.33,3.13,57.35,12.79,7.5,30.62,9.86,41.05,1,8.35-7.12,12.9-25.67-1.18-32-4.8-2.17-14.24-2.65-19.43,3.41-6.79,7.92-4.21,19,5.19,22.49,0,0-16.81-.84-19-18.22-3.79-29.57,34.05-34.44,52-23.36,32.28,19.94,20.83,65.12-27.19,73.35-24.33,4.16-64.53-4.21-80.46-36.76-6-12.2-4.34-10.11-4.34-10.11A39.47,39.47,0,0,0,27.42,139c11.42,8.31,22.06.78,19.47-10.15C38,91.29,53,84.92,62.1,77.89s5.54-20.2-12.46-17.31c-25.22,4.06-31.88,40.69-31.88,40.69S13.59,39,68.12,33.58C123.73,28,131.69,76.93,156,84.34,189.79,94.64,173.25,49,173.25,49Z"/></g></g></svg>