<?xml version="1.0" encoding="UTF-8" standalone="no"?>
<svg
   xmlns:dc="http://purl.org/dc/elements/1.1/"
   xmlns:cc="http://creativecommons.org/ns#"
   xmlns:rdf="http://www.w3.org/1999/02/22-rdf-syntax-ns#"
   xmlns:svg="http://www.w3.org/2000/svg"
   xmlns="http://www.w3.org/2000/svg"
   xmlns:sodipodi="http://sodipodi.sourceforge.net/DTD/sodipodi-0.dtd"
   xmlns:inkscape="http://www.inkscape.org/namespaces/inkscape"
   version="1.1"
   id="svg2"
   xml:space="preserve"
   width="800"
   height="800"
   viewBox="0 0 800 800"
   sodipodi:docname="RTC开发者社区.ai"><metadata
     id="metadata8"><rdf:RDF><cc:Work
         rdf:about=""><dc:format>image/svg+xml</dc:format><dc:type
           rdf:resource="http://purl.org/dc/dcmitype/StillImage" /></cc:Work></rdf:RDF></metadata><defs
     id="defs6"><clipPath
       clipPathUnits="userSpaceOnUse"
       id="clipPath18"><path
         d="M 0,600 H 600 V 0 H 0 Z"
         id="path16" /></clipPath></defs><sodipodi:namedview
     pagecolor="#ffffff"
     bordercolor="#666666"
     borderopacity="1"
     objecttolerance="10"
     gridtolerance="10"
     guidetolerance="10"
     inkscape:pageopacity="0"
     inkscape:pageshadow="2"
     inkscape:window-width="640"
     inkscape:window-height="480"
     id="namedview4" /><g
     id="g10"
     inkscape:groupmode="layer"
     inkscape:label="RTC开发者社区"
     transform="matrix(1.3333333,0,0,-1.3333333,0,800)"><g
       id="g12"><g
         id="g14"
         clip-path="url(#clipPath18)"><g
           id="g20"
           transform="translate(129.854,303.3726)"><path
             d="M 0,0 C 0,5.423 4.396,9.819 9.819,9.819 H 24.891 V 28.08 H -23.514 V 9.819 H -8.442 V -34.825 H 9.819 V -9.819 C 4.396,-9.819 0,-5.422 0,0"
             style="fill:#0b2588;fill-opacity:1;fill-rule:nonzero;stroke:none"
             id="path22" /></g><g
           id="g24"
           transform="translate(139.6729,301.3174)"><path
             d="m 0,0 c -1.135,0 -2.056,0.92 -2.056,2.055 0,1.136 0.921,2.056 2.056,2.056 1.135,0 2.056,-0.92 2.056,-2.056 C 2.056,0.92 1.135,0 0,0 m 0,8.107 c -3.342,0 -6.052,-2.71 -6.052,-6.052 0,-3.342 2.71,-6.051 6.052,-6.051 3.342,0 6.052,2.709 6.052,6.051 0,3.342 -2.71,6.052 -6.052,6.052"
             style="fill:#0b2588;fill-opacity:1;fill-rule:nonzero;stroke:none"
             id="path26" /></g><g
           id="g28"
           transform="translate(200.6616,283.7637)"><path
             d="m 0,0 -5.795,6.436 c -2.424,-2.182 -5.556,-3.384 -8.818,-3.384 -7.272,0 -13.188,5.916 -13.188,13.188 0,7.272 5.916,13.188 13.188,13.188 3.262,0 6.394,-1.202 8.819,-3.385 L 6.423,39.614 c -5.782,5.207 -13.253,8.074 -21.036,8.074 -17.341,0 -31.449,-14.107 -31.449,-31.448 0,-17.341 14.108,-31.449 31.449,-31.449 3.234,0 6.411,0.502 9.439,1.454 -0.727,1.371 -1.142,2.932 -1.142,4.591 0,4.187 2.626,7.752 6.316,9.164"
             style="fill:#0b2588;fill-opacity:1;fill-rule:nonzero;stroke:none"
             id="path30" /></g><g
           id="g32"
           transform="translate(204.1641,272.5439)"><path
             d="m 0,0 c -1.135,0 -2.056,0.921 -2.056,2.056 0,1.135 0.921,2.055 2.056,2.055 1.135,0 2.056,-0.92 2.056,-2.055 C 2.056,0.921 1.135,0 0,0 m 0,8.107 c -3.342,0 -6.052,-2.709 -6.052,-6.051 0,-3.342 2.71,-6.052 6.052,-6.052 3.342,0 6.052,2.71 6.052,6.052 0,3.342 -2.71,6.051 -6.052,6.051"
             style="fill:#0b2588;fill-opacity:1;fill-rule:nonzero;stroke:none"
             id="path34" /></g><g
           id="g36"
           transform="translate(80.3989,303.3364)"><path
             d="M 0,0 H -6.087 V 9.855 H 0 c 2.717,0 4.927,-2.21 4.927,-4.927 C 4.927,2.21 2.717,0 0,0 M 23.187,4.928 C 23.187,17.714 12.786,28.116 0,28.116 h -6.087 -9.13 -9.13 V -2.898 c 5.422,0 9.818,-4.396 9.818,-9.819 0,-5.423 -4.396,-9.819 -9.818,-9.819 v -12.253 h 18.26 v 16.529 h 0.908 l 9.845,-16.529 h 21.275 l -12.445,20.878 c 5.862,4.213 9.691,11.085 9.691,18.839"
             style="fill:#0b2588;fill-opacity:1;fill-rule:nonzero;stroke:none"
             id="path38" /></g><g
           id="g40"
           transform="translate(53.9961,290.6191)"><path
             d="M 0,0 C 0,1.136 0.92,2.056 2.056,2.056 3.191,2.056 4.111,1.136 4.111,0 4.111,-1.135 3.191,-2.056 2.056,-2.056 0.92,-2.056 0,-1.135 0,0 m 8.107,0 c 0,3.343 -2.709,6.052 -6.051,6.052 -3.343,0 -6.052,-2.709 -6.052,-6.052 0,-3.342 2.709,-6.052 6.052,-6.052 3.342,0 6.051,2.71 6.051,6.052"
             style="fill:#0b2588;fill-opacity:1;fill-rule:nonzero;stroke:none"
             id="path42" /></g><g
           id="g44"
           transform="translate(261.8062,303.4312)"><path
             d="M 0,0 V 16.24 H -15.242 V 1.93 0 Z M 21.964,-7.587 H 8.32 v -27.09 H 0 v 27.09 h -15.708 c -1.198,-9.917 -4.925,-20.035 -16.506,-27.289 -1.331,1.796 -4.393,4.592 -6.39,5.923 9.718,5.857 13.312,13.511 14.577,21.366 H -38.404 V 0 h 15.042 V 1.997 16.24 h -12.846 v 7.454 H 19.968 V 16.24 H 8.32 V 0 h 13.644 z"
             style="fill:#0b2588;fill-opacity:1;fill-rule:nonzero;stroke:none"
             id="path46" /></g><g
           id="g48"
           transform="translate(338.8799,317.4746)"><path
             d="m 0,0 c -1.664,2.463 -5.125,6.589 -7.721,9.584 l 6.123,3.661 C 0.998,10.45 4.593,6.589 6.39,4.127 Z m -21.099,-21.231 c 2.263,-3.662 5.058,-6.923 8.386,-9.718 3.262,2.795 5.924,6.056 7.987,9.718 z m 27.621,5.39 C 3.86,-24.094 -0.399,-30.55 -5.857,-35.542 -0.6,-38.337 5.591,-40.4 12.846,-41.599 c -1.731,-1.73 -3.861,-4.992 -4.926,-7.188 -8.12,1.664 -14.842,4.392 -20.499,8.12 -5.725,-3.66 -12.314,-6.256 -19.502,-8.12 -0.865,2.13 -2.662,5.191 -4.127,6.988 6.257,1.332 12.048,3.462 17.172,6.39 -2.795,2.663 -5.124,5.658 -7.188,9.052 -4.526,-6.989 -10.583,-12.712 -18.636,-17.239 -1.065,1.731 -3.861,4.992 -5.791,6.39 11.781,6.323 18.903,16.24 23.229,29.086 h -8.652 c -3.594,0 -6.39,-0.532 -6.989,-1.531 -0.466,1.664 -1.73,5.258 -2.596,7.189 0.998,0.332 1.997,1.264 2.862,2.728 0.865,1.398 3.328,6.589 4.592,11.781 l 8.387,-1.331 c -1.131,-3.794 -2.862,-7.854 -4.66,-11.248 h 9.186 c 1.064,4.526 1.93,9.385 2.529,14.51 l 8.852,-1.465 C -14.51,7.987 -15.242,3.594 -16.107,-0.532 h 26.69 V -8.12 h -28.62 c -0.6,-1.93 -1.198,-3.661 -1.864,-5.458 h 19.435 l 1.464,0.333 z"
             style="fill:#0b2588;fill-opacity:1;fill-rule:nonzero;stroke:none"
             id="path50" /></g><g
           id="g52"
           transform="translate(386.002,310.8853)"><path
             d="M 0,0 H 3.661 C 6.19,1.93 8.586,3.927 10.85,6.057 H 0 Z M 14.51,-29.019 H -8.386 v -4.526 H 14.51 Z m 0,10.25 H -8.386 v -4.26 H 14.51 Z M 6.456,-6.988 C 3.86,-8.852 1.331,-10.583 -1.397,-12.313 h 24.16 V -41.865 H 14.51 v 1.731 H -8.386 v -1.997 h -7.921 v 21.764 c -3.328,-1.464 -6.789,-2.928 -10.183,-4.193 -0.998,1.73 -3.327,4.926 -4.859,6.523 8.719,2.729 17.106,6.523 24.76,11.049 h -22.63 V 0 h 21.365 v 6.057 h -15.641 v 6.856 h 15.641 v 7.188 H 0 V 12.913 H 14.443 V 9.651 c 2.53,2.729 4.792,5.524 6.856,8.453 l 6.789,-3.461 C 24.294,9.385 19.835,4.459 14.976,0 h 15.441 v -6.988 z"
             style="fill:#0b2588;fill-opacity:1;fill-rule:nonzero;stroke:none"
             id="path54" /></g><g
           id="g56"
           transform="translate(484.1748,278.7383)"><path
             d="M 0,0 V -7.854 H -38.404 V 0 h 16.041 v 24.693 h -13.113 v 7.654 h 13.113 v 19.502 h 8.186 V 32.347 H -1.598 V 24.693 H -14.177 V 0 Z m -39.868,9.584 c -1.132,1.73 -2.995,4.193 -4.86,6.456 V -9.918 h -7.787 v 24.494 c -2.529,-2.263 -4.991,-4.326 -7.587,-5.857 -0.533,2.196 -2.063,6.589 -2.995,8.053 6.656,3.661 13.112,10.184 17.106,17.239 h -15.176 v 7.121 h 11.647 c -1.198,2.463 -3.327,5.724 -5.39,8.187 l 6.256,3.262 c 2.33,-2.53 4.859,-5.991 6.056,-8.387 l -5.257,-3.062 h 6.19 l 1.331,0.333 4.193,-3.061 c -1.864,-4.859 -4.592,-9.651 -7.654,-13.911 2.729,-2.396 7.521,-7.056 8.852,-8.32 z"
             style="fill:#0b2588;fill-opacity:1;fill-rule:nonzero;stroke:none"
             id="path58" /></g><g
           id="g60"
           transform="translate(537.5537,281.334)"><path
             d="m 0,0 c -3.062,3.594 -7.854,8.187 -13.179,13.045 -5.458,-5.191 -11.248,-9.65 -17.039,-13.179 -1.331,1.598 -4.26,4.659 -6.056,6.124 6.056,3.128 11.914,7.388 17.238,12.18 -4.925,4.26 -9.984,8.453 -14.509,11.98 l 5.524,4.859 c 4.327,-3.394 9.452,-7.321 14.443,-11.447 3.994,4.259 7.388,8.785 10.183,13.511 L 4.127,34.078 C 0.799,28.62 -3.195,23.428 -7.654,18.636 -2.13,14.044 2.862,9.518 6.189,5.856 Z m 12.446,-3.062 v -7.587 H -45.459 V 46.724 H 10.716 V 39.136 H -37.738 V -3.062 Z"
             style="fill:#0b2588;fill-opacity:1;fill-rule:nonzero;stroke:none"
             id="path62" /></g></g></g></g></svg>
