<svg xmlns="http://www.w3.org/2000/svg" viewBox="0 0 450 450"><defs><style>.cls-1{fill:#0d131a;}.cls-2{fill:#00995b;}.cls-3,.cls-5{fill:none;stroke-miterlimit:10;stroke-width:0.2px;opacity:0.25;}.cls-3{stroke:#231815;}.cls-4{fill:#fff;}.cls-5{stroke:#fff;}</style></defs><title>sf-思否-logo-rgb</title><g id="light"><path class="cls-1" d="M48.54,140.85a9.7,9.7,0,0,0,6,2.7c1.57,0,3.34-.69,3.34-2.55,0-2.07-2.41-2.41-5.11-3.59-3.05-1.33-5.6-2.95-5.6-6.83,0-5.06,4.08-7.23,9.14-7.23a14.77,14.77,0,0,1,7.81,2V126l-2,3.88a8.94,8.94,0,0,0-5.31-1.72c-1.82,0-3,.74-3,2.16,0,1.87,2.16,2.26,4.87,3.29,3.73,1.43,6,3,6,7,0,5.21-4.08,7.47-9.48,7.47a13.83,13.83,0,0,1-8.8-2.9v-.59Z" transform="translate(0 -112)"/><path class="cls-1" d="M77.59,148c-8,0-11.26-5.55-11.26-12.48s3-12.19,10.92-12.19c7.61,0,10.32,4.92,10.32,11.31a9.83,9.83,0,0,1-.5,2.85c-1.86,0-13.31-.1-13.81-.1,0,2.6,1.18,6,5.12,6a7.09,7.09,0,0,0,5.16-2.6l2.8,3.14v.59A12.74,12.74,0,0,1,77.59,148Zm-.34-19.85c-2.41,0-3.79,1.87-3.94,5.75.54,0,7.38-.15,7.62-.15C80.93,130.09,79.85,128.17,77.25,128.17Z" transform="translate(0 -112)"/><path class="cls-1" d="M111.06,128.46v19.91c0,6.78-5.11,9.63-10.72,9.63a18.65,18.65,0,0,1-9.19-2.41l1.77-4.37h.59a11.35,11.35,0,0,0,6.1,2c2.9,0,4.52-1.47,4.52-4,0-.39.14-2.65.24-4l-.19-.09A9.45,9.45,0,0,1,97.74,148c-6.73,0-8.36-6.14-8.36-12.43,0-6.14,2.51-12.19,8.51-12.19a9.51,9.51,0,0,1,6.53,2.8l.15-.09.49-1.72.54-.5,5.6.15C111.16,124.48,111.06,127,111.06,128.46Zm-6.88,2a5.45,5.45,0,0,0-3.89-2c-3.29,0-3.68,4.43-3.68,7.08,0,2.9.15,7.77,3.24,7.77,1.38,0,3.1-1.13,4.23-2.56C104.08,140.26,104.18,131,104.18,130.43Z" transform="translate(0 -112)"/><path class="cls-1" d="M140.54,147.38c0-.44.2-15,.2-15.48,0-2.45-.64-3.39-2.16-3.39a7,7,0,0,0-3.93,1.62v17.25h-6.79c0-.44.1-15,.1-15.48,0-2.45-.59-3.39-2-3.39a7.29,7.29,0,0,0-4,1.67l0,17.2h-7V130c0-1.67-.1-5-.15-6l5.8-.15.54.5.34,1.91.1,0a12.87,12.87,0,0,1,7.57-2.9,5,5,0,0,1,4.77,3,14,14,0,0,1,8-3c3.19,0,5.7,2,5.7,7,0,.49-.15,16.51-.15,17Z" transform="translate(0 -112)"/><path class="cls-1" d="M161.77,148c-8,0-11.25-5.55-11.25-12.48s3-12.19,10.91-12.19c7.62,0,10.32,4.92,10.32,11.31a10.16,10.16,0,0,1-.49,2.85c-1.87,0-13.32-.1-13.81-.1.05,2.6,1.18,6,5.11,6a7.05,7.05,0,0,0,5.16-2.6l2.8,3.14v.59A12.74,12.74,0,0,1,161.77,148Zm-.34-19.85c-2.41,0-3.78,1.87-3.93,5.75.54,0,7.37-.15,7.62-.15C165.12,130.09,164,128.17,161.43,128.17Z" transform="translate(0 -112)"/><path class="cls-1" d="M187.77,147.38c0-.44.2-15,.2-15.48,0-2.5-.59-3.39-2.26-3.39a9.25,9.25,0,0,0-4.33,1.67l.05,17.2h-7V130c0-1.72-.09-5-.14-6l5.8-.15.54.5.34,1.91.1,0a14.89,14.89,0,0,1,8-2.9c3.29,0,5.8,2,5.8,7,0,.49-.15,16.51-.15,17Z" transform="translate(0 -112)"/><path class="cls-1" d="M206.55,147.38c-6.15,0-6.59-3.53-6.59-7,0-.5,0-6.88.1-11.5-1.53.05-2.51.05-3,.05l.05-5c.49,0,1.42,0,2.95.05-.05-2.7-.1-6.19-.1-6.63l.49-.5h6.49c0,.45,0,3.4-.1,7.13,1.72-.05,4-.05,4.52-.05l-.1,5c-.49,0-2.7,0-4.42-.05,0,4.47,0,10.22,0,10.66,0,2.46.05,3,2.21,3H211l.1,4.37-.5.49Z" transform="translate(0 -112)"/><path class="cls-2" d="M217.18,147.38c0-.49.1-13.85.15-18.47-1.33.05-2.7.05-3.1.05l.05-5c.4,0,1.72,0,3,.05,0-.2-.1-4.27-.1-4.42,0-5.56,3.25-7.62,7.47-7.62a14.09,14.09,0,0,1,5.56,1.08v.74l-1.43,3.93a5.18,5.18,0,0,0-2.46-.69c-1.37,0-2.26.69-2.26,3.29,0,.89.05,3.49.05,3.69,1.48-.05,4.28-.05,4.67-.05l-.05,5c-.39,0-3.19,0-4.67-.05.1,4.62.1,18,.1,18.47Z" transform="translate(0 -112)"/><path class="cls-2" d="M244.71,147.38l-.5-.49-.59-1.86-.19-.05a10.66,10.66,0,0,1-7.37,3c-5.26,0-6.2-4.52-6.2-7.17,0-7.57,6.49-8,13.27-8.41v-1.52c0-2.16-1.42-2.7-3.14-2.7a21.4,21.4,0,0,0-7.52,1.62l-1.53-3.93v-.59a32.44,32.44,0,0,1,11.06-2c4.87,0,8.06,2,8.06,7.28v11.1c0,1.92.1,4.67.15,5.65Zm-1.53-11.25c-4.62.1-6.63.15-6.63,3.83,0,1.72.44,3.35,2.31,3.35a6.31,6.31,0,0,0,4.27-2.17c0-.29.1-4.67.1-5Z" transform="translate(0 -112)"/><path class="cls-2" d="M269.13,147.38l-.49-.49-.59-2-.2-.05a11,11,0,0,1-8,3.14c-3.59,0-6.19-2-6.19-7,0-.49.15-16.56.15-17h6.48l.5.49c0,.54-.15,14.65-.15,15.29,0,1.77.59,3.44,2.36,3.44a7.35,7.35,0,0,0,4.62-2.21l-.1-17H274l.49.49v17.25c0,1.92.1,4.67.14,5.65Z" transform="translate(0 -112)"/><path class="cls-2" d="M285.3,141.73c0,1.87.1,4.67.2,5.65h-7c-.1-1-.2-3.78-.2-5.65V118.49c0-1.87-.05-4.67-.15-5.65l6.64-.2.49.49Z" transform="translate(0 -112)"/><path class="cls-2" d="M297.09,147.38c-6.14,0-6.58-3.53-6.58-7,0-.5,0-6.88.1-11.5-1.53.05-2.51.05-3,.05l.05-5c.49,0,1.42,0,2.95.05-.05-2.7-.1-6.19-.1-6.63l.49-.5h6.49c0,.45,0,3.4-.1,7.13,1.72-.05,4-.05,4.52-.05l-.1,5c-.49,0-2.7,0-4.42-.05.05,4.47.05,10.22.05,10.66,0,2.46.05,3,2.21,3h1.92l.09,4.37-.49.49Z" transform="translate(0 -112)"/><path class="cls-1" d="M338.51,143.47a23.26,23.26,0,0,0,3.53-7.81l3.63,1.31c-.81,2.86-1.95,6.26-3.57,8.48Zm13.89-10.16H341.87V117.37H366v15.94H353.24a26.59,26.59,0,0,1,6.22,4.27l-2.86,2.72a28.08,28.08,0,0,0-6.56-4.81Zm-6.76-9.65H352v-2.83h-6.32Zm0,6.18H352v-3h-6.32Zm11.87,13.29c1.38,0,1.65-.51,1.85-3.83a11.32,11.32,0,0,0,3.6,1.47c-.44,4.78-1.62,6-5.12,6h-5.58c-4.44,0-5.55-1.18-5.55-4.74V136.5h4V142c0,1,.3,1.14,2,1.14Zm4.47-22.3h-6.15v2.83H362Zm0,6h-6.15v3H362Zm3.23,8.58a29.3,29.3,0,0,1,4.44,8.14l-3.9,1.65a29.85,29.85,0,0,0-4.11-8.31Z" transform="translate(0 -112)"/><path class="cls-1" d="M385.56,127a48.15,48.15,0,0,1-11.13,5.78,25.64,25.64,0,0,0-2.86-3.56c5.48-1.62,10.86-4.34,14.56-7.84H372.92v-3.73h29.46v3.73H391.75a23,23,0,0,1-2.12,2.29v9.48h-4.07Zm-9.15,7.09h22.77v13.25h-4.37v-1.21H380.55v1.25h-4.14Zm4.14,3.5v5.08h14.26v-5.08Zm12.68-13.82a59.56,59.56,0,0,1,10.29,5.65l-2.89,3a57.5,57.5,0,0,0-10.26-6Z" transform="translate(0 -112)"/><line class="cls-3" x1="320.35" x2="320.35" y2="46"/></g><g id="dark"><rect class="cls-1" y="180" width="450" height="270"/><path class="cls-4" d="M49.54,432.85a9.7,9.7,0,0,0,6,2.7c1.57,0,3.34-.69,3.34-2.55,0-2.07-2.41-2.41-5.11-3.59-3.05-1.33-5.6-3-5.6-6.83,0-5.06,4.08-7.23,9.14-7.23a14.77,14.77,0,0,1,7.81,2V418l-2,3.88a8.94,8.94,0,0,0-5.31-1.72c-1.82,0-3,.74-3,2.16,0,1.87,2.16,2.26,4.87,3.29,3.73,1.43,6,3,6,7,0,5.21-4.08,7.47-9.48,7.47a13.83,13.83,0,0,1-8.8-2.9v-.59Z" transform="translate(0 -112)"/><path class="cls-4" d="M78.59,440c-8,0-11.26-5.55-11.26-12.48s3-12.19,10.92-12.19c7.61,0,10.32,4.92,10.32,11.31a9.83,9.83,0,0,1-.5,2.85c-1.86,0-13.31-.1-13.81-.1,0,2.6,1.18,6,5.12,6a7.09,7.09,0,0,0,5.16-2.6l2.8,3.14v.59A12.74,12.74,0,0,1,78.59,440Zm-.34-19.85c-2.41,0-3.79,1.87-3.94,5.75.54,0,7.38-.15,7.62-.15C81.93,422.09,80.85,420.17,78.25,420.17Z" transform="translate(0 -112)"/><path class="cls-4" d="M112.06,420.46v19.91c0,6.78-5.11,9.63-10.72,9.63a18.65,18.65,0,0,1-9.19-2.41l1.77-4.37h.59a11.35,11.35,0,0,0,6.1,2c2.9,0,4.52-1.47,4.52-4,0-.39.14-2.65.24-4l-.19-.09A9.45,9.45,0,0,1,98.74,440c-6.73,0-8.36-6.14-8.36-12.43s2.51-12.19,8.51-12.19a9.51,9.51,0,0,1,6.53,2.8l.15-.09.49-1.72.54-.5,5.6.15C112.16,416.48,112.06,419,112.06,420.46Zm-6.88,2a5.45,5.45,0,0,0-3.89-2c-3.29,0-3.68,4.43-3.68,7.08,0,2.9.15,7.77,3.24,7.77,1.38,0,3.1-1.13,4.23-2.56C105.08,432.26,105.18,423,105.18,422.43Z" transform="translate(0 -112)"/><path class="cls-4" d="M141.54,439.38c0-.44.2-15,.2-15.48,0-2.45-.64-3.39-2.16-3.39a7,7,0,0,0-3.93,1.62v17.25h-6.79c0-.44.1-15,.1-15.48,0-2.45-.59-3.39-2-3.39a7.29,7.29,0,0,0-4,1.67l0,17.2h-7V422c0-1.67-.1-5-.15-6.05l5.8-.15.54.5.34,1.91.1.05a12.87,12.87,0,0,1,7.57-2.9,5,5,0,0,1,4.77,3,14,14,0,0,1,8-3c3.19,0,5.7,2,5.7,7,0,.49-.15,16.51-.15,17Z" transform="translate(0 -112)"/><path class="cls-4" d="M162.77,440c-8,0-11.25-5.55-11.25-12.48s3-12.19,10.91-12.19c7.62,0,10.32,4.92,10.32,11.31a10.16,10.16,0,0,1-.49,2.85c-1.87,0-13.32-.1-13.81-.1.05,2.6,1.18,6,5.11,6a7.05,7.05,0,0,0,5.16-2.6l2.8,3.14v.59A12.74,12.74,0,0,1,162.77,440Zm-.34-19.85c-2.41,0-3.78,1.87-3.93,5.75.54,0,7.37-.15,7.62-.15C166.12,422.09,165,420.17,162.43,420.17Z" transform="translate(0 -112)"/><path class="cls-4" d="M188.77,439.38c0-.44.2-15,.2-15.48,0-2.5-.59-3.39-2.26-3.39a9.25,9.25,0,0,0-4.33,1.67l.05,17.2h-7V422c0-1.72-.09-5-.14-6.05l5.8-.15.54.5.34,1.91.1.05a14.89,14.89,0,0,1,8-2.9c3.29,0,5.8,2,5.8,7,0,.49-.15,16.51-.15,17Z" transform="translate(0 -112)"/><path class="cls-4" d="M207.55,439.38c-6.15,0-6.59-3.53-6.59-7,0-.5,0-6.88.1-11.5-1.53,0-2.51,0-3,0l.05-5c.49,0,1.42,0,2.95.05-.05-2.7-.1-6.19-.1-6.63l.49-.5h6.49c0,.45,0,3.4-.1,7.13,1.72-.05,4-.05,4.52-.05l-.1,5c-.49,0-2.7,0-4.42,0,0,4.47,0,10.22,0,10.66,0,2.46.05,2.95,2.21,2.95H212l.1,4.37-.5.49Z" transform="translate(0 -112)"/><path class="cls-2" d="M218.18,439.38c0-.49.1-13.85.15-18.47-1.33,0-2.7,0-3.1,0l.05-5c.4,0,1.72,0,3,.05,0-.2-.1-4.27-.1-4.42,0-5.56,3.25-7.62,7.47-7.62a14.09,14.09,0,0,1,5.56,1.08v.74l-1.43,3.93a5.18,5.18,0,0,0-2.46-.69c-1.37,0-2.26.69-2.26,3.29,0,.89.05,3.49.05,3.69,1.48-.05,4.28-.05,4.67-.05l-.05,5c-.39,0-3.19,0-4.67,0,.1,4.62.1,18,.1,18.47Z" transform="translate(0 -112)"/><path class="cls-2" d="M245.71,439.38l-.5-.49-.59-1.86-.19,0a10.66,10.66,0,0,1-7.37,3c-5.26,0-6.2-4.52-6.2-7.17,0-7.57,6.49-8,13.27-8.41v-1.52c0-2.16-1.42-2.7-3.14-2.7a21.4,21.4,0,0,0-7.52,1.62l-1.53-3.93v-.59a32.44,32.44,0,0,1,11.06-2c4.87,0,8.06,2,8.06,7.28v11.1c0,1.92.1,4.67.15,5.65Zm-1.53-11.25c-4.62.1-6.63.15-6.63,3.83,0,1.72.44,3.35,2.31,3.35a6.31,6.31,0,0,0,4.27-2.17c0-.29.1-4.67.1-5Z" transform="translate(0 -112)"/><path class="cls-2" d="M270.13,439.38l-.49-.49-.59-2-.2-.05a11,11,0,0,1-8,3.14c-3.59,0-6.19-2-6.19-7,0-.49.15-16.56.15-17.05h6.48l.5.49c0,.54-.15,14.65-.15,15.29,0,1.77.59,3.44,2.36,3.44a7.35,7.35,0,0,0,4.62-2.21l-.1-17H275l.49.49v17.25c0,1.92.1,4.67.14,5.65Z" transform="translate(0 -112)"/><path class="cls-2" d="M286.3,433.73c0,1.87.1,4.67.2,5.65h-7c-.1-1-.2-3.78-.2-5.65V410.49c0-1.87-.05-4.67-.15-5.65l6.64-.2.49.49Z" transform="translate(0 -112)"/><path class="cls-2" d="M298.09,439.38c-6.14,0-6.58-3.53-6.58-7,0-.5,0-6.88.1-11.5-1.53,0-2.51,0-3,0l.05-5c.49,0,1.42,0,2.95.05-.05-2.7-.1-6.19-.1-6.63l.49-.5h6.49c0,.45,0,3.4-.1,7.13,1.72-.05,4-.05,4.52-.05l-.1,5c-.49,0-2.7,0-4.42,0,.05,4.47.05,10.22.05,10.66,0,2.46.05,2.95,2.21,2.95h1.92l.09,4.37-.49.49Z" transform="translate(0 -112)"/><path class="cls-4" d="M339.51,435.47a23.26,23.26,0,0,0,3.53-7.81l3.63,1.31c-.81,2.86-1.95,6.26-3.57,8.48Zm13.89-10.16H342.87V409.37H367v15.94H354.24a26.59,26.59,0,0,1,6.22,4.27l-2.86,2.72a28.08,28.08,0,0,0-6.56-4.81Zm-6.76-9.65H353v-2.83h-6.32Zm0,6.18H353v-3h-6.32Zm11.87,13.29c1.38,0,1.65-.51,1.85-3.83a11.32,11.32,0,0,0,3.6,1.47c-.44,4.78-1.62,6-5.12,6h-5.58c-4.44,0-5.55-1.18-5.55-4.74V428.5h4V434c0,1,.3,1.14,2,1.14Zm4.47-22.3h-6.15v2.83H363Zm0,6.05h-6.15v3H363Zm3.23,8.58a29.3,29.3,0,0,1,4.44,8.14l-3.9,1.65a29.85,29.85,0,0,0-4.11-8.31Z" transform="translate(0 -112)"/><path class="cls-4" d="M386.56,419a48.15,48.15,0,0,1-11.13,5.78,25.64,25.64,0,0,0-2.86-3.56c5.48-1.62,10.86-4.34,14.56-7.84H373.92v-3.73h29.46v3.73H392.75a23,23,0,0,1-2.12,2.29v9.48h-4.07Zm-9.15,7.09h22.77v13.25h-4.37v-1.21H381.55v1.25h-4.14Zm4.14,3.5v5.08h14.26v-5.08Zm12.68-13.82a59.56,59.56,0,0,1,10.29,5.65l-2.89,3a57.5,57.5,0,0,0-10.26-6Z" transform="translate(0 -112)"/><line class="cls-5" x1="321.35" y1="292" x2="321.35" y2="338"/></g></svg>