<svg width="1327" height="300" viewBox="0 0 1327 300" fill="none" xmlns="http://www.w3.org/2000/svg">
<path fill-rule="evenodd" clip-rule="evenodd" d="M117.007 232.23C106.379 244.14 91.3222 260.809 71.8357 282.237C50.8493 237.41 38.2144 209.357 33.9309 198.076C29.6474 186.796 28.8647 175.483 31.5828 164.139C36.8874 138.71 58.0435 120.326 82.802 118.01C83.2833 124.049 84.3391 130.143 85.9695 136.291C89.9316 151.234 100.277 183.214 117.007 232.23V232.23Z" fill="#9E2165"/>
<path fill-rule="evenodd" clip-rule="evenodd" d="M276.102 83.8106C296.617 99.457 308.508 125.197 305.552 152.428C304.233 168.439 298.739 182.108 289.158 193.448C279.578 204.788 252.914 234.384 209.168 282.237C201.235 265.38 194.214 250.347 188.107 237.139C220.148 208.451 240.888 189.572 250.327 180.501C264.235 167.136 273.186 150.206 277.067 129.681C280.444 114.047 279.915 98.395 276.102 83.8106V83.8106Z" fill="#F79A25"/>
<path d="M136.432 283.209C136.505 282.984 136.566 282.75 136.617 282.51C137.122 279.031 140.512 256.199 146.602 225.957C146.775 225.098 146.952 224.233 147.128 223.363C147.177 223.12 147.23 222.876 147.279 222.638C147.925 219.466 148.603 216.225 149.308 212.918C149.448 212.269 149.588 211.62 149.885 211.184C150.558 208.139 151.536 204.668 152.254 201.537C152.454 200.668 152.656 199.789 152.86 198.914C153.762 195.033 154.7 191.104 155.669 187.134C156.599 183.333 157.567 179.506 158.563 175.654C159.56 171.802 160.591 167.939 161.653 164.067C162.732 160.13 163.848 156.192 164.993 152.271C166.127 148.394 167.296 144.529 168.495 140.695C168.927 139.313 169.365 137.934 169.804 136.561C170.378 134.77 175.086 121.316 176.407 117.753C177.817 113.958 179.263 110.237 180.744 106.605C182.279 102.835 183.854 99.1631 185.468 95.6122C185.56 95.4052 185.657 95.1923 185.749 94.9801C187.27 91.6469 188.825 88.4232 190.417 85.3255C193.906 78.3947 197.552 72.0898 201.355 66.607C201.647 66.1731 201.802 65.9655 201.802 65.9655C201.653 66.1776 201.504 66.3949 201.355 66.607C200.155 68.3906 196.594 74.0072 191.384 84.8684C189.935 87.9321 188.075 91.7243 186.417 95.636C186.329 95.8373 186.242 96.0489 186.155 96.2554C184.725 99.6417 183.218 103.349 181.66 107.398C180.309 110.894 178.919 114.637 177.493 118.653C176.248 122.15 172.459 135.329 172.128 136.375C171.578 138.121 171.028 139.903 170.474 141.728C170.192 142.646 169.916 143.569 169.632 144.509C168.789 147.317 167.944 150.214 167.089 153.203C166.042 156.876 164.982 160.687 163.921 164.641C162.908 168.41 161.891 172.305 160.873 176.332C159.903 180.152 158.936 184.093 157.963 188.15C157.098 191.772 156.235 195.482 155.37 199.298C155.328 199.483 155.285 199.668 155.248 199.852C154.53 203.023 153.117 209.683 152.603 211.839C152.474 212.416 152.351 212.992 152.228 213.574C151.57 216.655 150.914 219.788 150.235 223.128C150.141 223.58 150.052 224.032 149.959 224.484C149.522 226.64 149.149 228.579 148.295 232.989C150.83 233.736 153.145 236.316 155.412 239.295C154.75 235.976 152.913 233.025 149.931 230.962C161.753 229.841 171.46 225.463 175.49 216.177C175.851 215.347 176.165 214.488 176.431 213.578C174.476 216.915 171.707 218.604 166.11 219.071C173.769 214.281 177.379 210.211 180.186 203.907C180.852 202.413 181.475 200.795 182.095 199.01C176.242 206.958 168.68 210.27 160.207 210.234C162.846 208.549 176.596 199.897 181.744 192.544C184.384 188.773 186.651 184.445 188.612 179.475C190.072 175.775 191.361 171.721 192.505 167.271C193.507 163.383 194.403 159.2 195.201 154.688C193.532 155.891 191.564 156.877 189.354 157.682C188.968 157.821 188.572 157.96 188.168 158.091C187.765 158.221 187.356 158.347 186.941 158.463C193.88 154.616 197.733 148.533 200.155 141.409C198.412 142.99 195.524 145.148 191.89 146.501C191.394 146.686 190.885 146.847 190.369 146.998C190.237 147.038 190.111 147.076 189.984 147.11C192.39 145.678 194.367 144.19 196.029 142.525C196.385 142.17 196.728 141.806 197.055 141.428C197.554 140.858 198.018 140.267 198.459 139.652C198.741 139.26 199.011 138.859 199.268 138.444C199.875 137.475 200.425 136.445 200.923 135.338C201.075 135.001 201.222 134.659 201.368 134.307C201.544 133.804 201.712 133.312 201.876 132.826C202.609 130.628 203.168 128.681 203.592 126.98C203.804 126.129 203.984 125.346 204.129 124.62C204.189 124.333 204.244 124.052 204.296 123.781C204.445 122.971 204.56 122.255 204.64 121.628C204.761 120.69 204.81 119.951 204.819 119.418C204.599 119.649 204.343 119.885 204.049 120.121C202.291 121.538 199.327 123.029 196.627 124.046C200.62 120.899 202.413 117.548 204.216 114.162C204.772 113.071 205.327 111.933 205.872 110.76C207.537 107.167 209.114 103.246 210.476 99.3755C211.788 95.6384 212.891 91.962 213.673 88.677C214.168 86.587 214.532 84.6571 214.735 82.9806C214.883 81.7575 215.002 80.2541 215.078 79.0178C215.567 65.2068 209.975 59.6993 209.975 59.6993C209.975 59.6993 202.592 50.7422 196.131 55.9342C192.995 58.4507 188.123 65.0181 182.522 74.3454C182.196 74.8779 181.87 75.4177 181.538 75.9656C180.044 78.4509 178.502 81.1161 176.933 83.9319C175.166 87.1059 173.364 90.484 171.547 94.0163C169.872 97.2822 168.185 100.691 166.514 104.208C165.092 107.203 163.671 110.281 162.277 113.429C162.242 113.507 162.038 113.895 161.873 114.152C161.769 114.389 161.671 114.625 161.567 114.862C160.113 118.228 158.674 121.667 157.28 125.167C155.871 128.702 154.506 132.294 153.189 135.927C152.077 138.991 151.005 142.077 149.977 145.183C149.771 145.814 149.569 146.435 149.367 147.061C148.109 150.966 147.01 154.721 146.042 158.321C144.945 162.399 144.022 166.278 143.251 169.94C142.742 172.349 142.3 174.669 141.907 176.892C141.594 178.787 141.307 180.683 141.051 182.565C140.437 187.003 139.607 192.348 139.496 196.917C139.253 201.968 139.274 206.963 139.651 212.426C136.587 208.708 129.356 205.675 129.377 205.709C135.146 212.092 139.755 218.586 141.263 225.383C138.781 226.278 135.169 225.997 130.907 225.047C135.683 228.403 139.006 229.05 140.281 229.17C136.439 229.962 132.782 233.242 129.153 236.938C134.754 233.632 139.423 231.979 142.977 232.289C139.935 247.777 137.082 264.707 134.365 282.611C107.289 204.63 91.1573 155.857 85.9695 136.291C80.7405 116.571 81.4216 97.4169 88.0126 78.8291C104.01 29.0875 156.09 0.0826254 206.767 13.7139C257.445 27.3452 288.101 78.6049 277.067 129.681C273.186 150.206 264.235 167.136 250.327 180.501C236.524 193.765 198.559 228.001 136.432 283.209Z" fill="#662F8F"/>
<path fill-rule="evenodd" clip-rule="evenodd" d="M352.695 168.053L350.527 174H336.26L354.014 131.93H368.281L385.391 174H370.566L368.457 168.053H352.695ZM360.723 145.787L356.299 158.092H365.059L360.723 145.787ZM411.01 131.93C416.498 131.93 420.741 133.243 423.739 135.87C426.737 138.497 428.236 142.203 428.236 146.988C428.236 152.066 426.737 156.017 423.739 158.839C420.741 161.661 416.498 163.072 411.01 163.072H405.209V174H391.264V131.93H411.01ZM405.209 152.525H410.307C411.83 152.525 412.997 152.076 413.808 151.178C414.618 150.279 415.023 149.029 415.023 147.428C415.023 145.865 414.613 144.654 413.793 143.795C412.973 142.936 411.811 142.506 410.307 142.506H405.209V152.525ZM445.154 168.053L442.986 174H428.719L446.473 131.93H460.74L477.85 174H463.025L460.916 168.053H445.154ZM453.182 145.787L448.758 158.092H457.518L453.182 145.787ZM503.234 131.52C506.437 131.52 509.66 132.218 512.902 133.614C516.145 135.011 518.84 136.871 520.988 139.195L512.961 148.746C511.73 147.027 510.241 145.655 508.493 144.63C506.745 143.604 505.051 143.092 503.41 143.092C500.891 143.092 498.811 143.995 497.17 145.802C495.529 147.608 494.709 149.908 494.709 152.701C494.709 154.537 495.08 156.197 495.822 157.682C496.564 159.166 497.604 160.328 498.942 161.168C500.28 162.008 501.769 162.428 503.41 162.428C504.934 162.428 506.564 161.998 508.303 161.139C510.041 160.279 511.594 159.107 512.961 157.623L520.988 166.207C518.625 168.766 515.793 170.802 512.492 172.315C509.191 173.829 505.93 174.586 502.707 174.586C498.469 174.586 494.655 173.648 491.267 171.773C487.878 169.898 485.227 167.311 483.312 164.01C481.398 160.709 480.441 156.998 480.441 152.877C480.441 148.795 481.418 145.133 483.371 141.891C485.324 138.648 488.034 136.109 491.501 134.273C494.968 132.437 498.879 131.52 503.234 131.52ZM554.254 174V158.824H541.246V174H527.301V131.93H541.246V148.248H554.254V131.93H568.17V174H554.254ZM591.592 142.506V147.662H611.25V158.209H591.592V163.453H613.77V174H577.646V131.93H613.242V142.506H591.592ZM670.047 162.428V174H638.582V131.93H652.527V162.428H670.047ZM698.127 131.52C702.522 131.52 706.481 132.437 710.007 134.273C713.532 136.109 716.286 138.658 718.269 141.92C720.251 145.182 721.242 148.854 721.242 152.936C721.242 157.057 720.251 160.758 718.269 164.039C716.286 167.32 713.532 169.898 710.007 171.773C706.481 173.648 702.522 174.586 698.127 174.586C693.732 174.586 689.772 173.658 686.247 171.803C682.722 169.947 679.973 167.369 678 164.068C676.027 160.768 675.041 157.057 675.041 152.936C675.041 148.814 676.027 145.133 678 141.891C679.973 138.648 682.722 136.109 686.247 134.273C689.772 132.437 693.732 131.52 698.127 131.52ZM698.303 143.092C696.701 143.092 695.212 143.521 693.835 144.381C692.458 145.24 691.359 146.422 690.539 147.926C689.719 149.43 689.309 151.119 689.309 152.994C689.309 154.869 689.719 156.568 690.539 158.092C691.359 159.615 692.458 160.816 693.835 161.695C695.212 162.574 696.701 163.014 698.303 163.014C699.904 163.014 701.364 162.574 702.683 161.695C704.001 160.816 705.041 159.615 705.803 158.092C706.564 156.568 706.945 154.869 706.945 152.994C706.945 151.119 706.564 149.43 705.803 147.926C705.041 146.422 704.001 145.24 702.683 144.381C701.364 143.521 699.904 143.092 698.303 143.092ZM749.322 131.52C752.525 131.52 755.748 132.218 758.99 133.614C762.232 135.011 764.928 136.871 767.076 139.195L759.049 148.746C757.818 147.027 756.329 145.655 754.581 144.63C752.833 143.604 751.139 143.092 749.498 143.092C746.979 143.092 744.898 143.995 743.258 145.802C741.617 147.608 740.797 149.908 740.797 152.701C740.797 154.537 741.168 156.197 741.91 157.682C742.652 159.166 743.692 160.328 745.03 161.168C746.368 162.008 747.857 162.428 749.498 162.428C751.021 162.428 752.652 161.998 754.391 161.139C756.129 160.279 757.682 159.107 759.049 157.623L767.076 166.207C764.713 168.766 761.881 170.802 758.58 172.315C755.279 173.829 752.018 174.586 748.795 174.586C744.557 174.586 740.743 173.648 737.354 171.773C733.966 169.898 731.314 167.311 729.4 164.01C727.486 160.709 726.529 156.998 726.529 152.877C726.529 148.795 727.506 145.133 729.459 141.891C731.412 138.648 734.122 136.109 737.589 134.273C741.056 132.437 744.967 131.52 749.322 131.52ZM785.664 168.053L783.496 174H769.229L786.982 131.93H801.25L818.359 174H803.535L801.426 168.053H785.664ZM793.691 145.787L789.268 158.092H798.027L793.691 145.787ZM855.697 162.428V174H824.232V131.93H838.178V162.428H855.697ZM899.523 131.52C902.727 131.52 905.949 132.218 909.191 133.614C912.434 135.011 915.129 136.871 917.277 139.195L909.25 148.746C908.019 147.027 906.53 145.655 904.782 144.63C903.034 143.604 901.34 143.092 899.699 143.092C897.18 143.092 895.1 143.995 893.459 145.802C891.818 147.608 890.998 149.908 890.998 152.701C890.998 154.537 891.369 156.197 892.111 157.682C892.853 159.166 893.894 160.328 895.231 161.168C896.569 162.008 898.059 162.428 899.699 162.428C901.223 162.428 902.853 161.998 904.592 161.139C906.33 160.279 907.883 159.107 909.25 157.623L917.277 166.207C914.914 168.766 912.082 170.802 908.781 172.315C905.48 173.829 902.219 174.586 898.996 174.586C894.758 174.586 890.944 173.648 887.556 171.773C884.167 169.898 881.516 167.311 879.602 164.01C877.687 160.709 876.73 156.998 876.73 152.877C876.73 148.795 877.707 145.133 879.66 141.891C881.613 138.648 884.323 136.109 887.79 134.273C891.257 132.437 895.168 131.52 899.523 131.52ZM944.01 131.52C948.404 131.52 952.364 132.437 955.89 134.273C959.415 136.109 962.169 138.658 964.151 141.92C966.134 145.182 967.125 148.854 967.125 152.936C967.125 157.057 966.134 160.758 964.151 164.039C962.169 167.32 959.415 169.898 955.89 171.773C952.364 173.648 948.404 174.586 944.01 174.586C939.615 174.586 935.655 173.658 932.13 171.803C928.604 169.947 925.855 167.369 923.883 164.068C921.91 160.768 920.924 157.057 920.924 152.936C920.924 148.814 921.91 145.133 923.883 141.891C925.855 138.648 928.604 136.109 932.13 134.273C935.655 132.437 939.615 131.52 944.01 131.52ZM944.186 143.092C942.584 143.092 941.095 143.521 939.718 144.381C938.341 145.24 937.242 146.422 936.422 147.926C935.602 149.43 935.191 151.119 935.191 152.994C935.191 154.869 935.602 156.568 936.422 158.092C937.242 159.615 938.341 160.816 939.718 161.695C941.095 162.574 942.584 163.014 944.186 163.014C945.787 163.014 947.247 162.574 948.565 161.695C949.884 160.816 950.924 159.615 951.686 158.092C952.447 156.568 952.828 154.869 952.828 152.994C952.828 151.119 952.447 149.43 951.686 147.926C950.924 146.422 949.884 145.24 948.565 144.381C947.247 143.521 945.787 143.092 944.186 143.092ZM1010.15 174V150.973L1002.94 169.928H993.828L986.621 150.973V174H974.492V131.93H989.199L998.398 153.902L1007.57 131.93H1022.28V174H1010.15ZM1067.41 174V150.973L1060.2 169.928H1051.09L1043.88 150.973V174H1031.75V131.93H1046.46L1055.66 153.902L1064.83 131.93H1079.54V174H1067.41ZM1128.8 156.188C1128.8 159.859 1127.98 163.087 1126.34 165.87C1124.7 168.653 1122.37 170.802 1119.35 172.315C1116.33 173.829 1112.8 174.586 1108.76 174.586C1104.71 174.586 1101.16 173.829 1098.08 172.315C1095 170.802 1092.62 168.653 1090.95 165.87C1089.27 163.087 1088.43 159.859 1088.43 156.188V131.93H1102.34V156.188C1102.34 158.18 1102.97 159.815 1104.23 161.095C1105.49 162.374 1107.02 163.014 1108.82 163.014C1110.57 163.014 1112.02 162.394 1113.17 161.153C1114.31 159.913 1114.88 158.258 1114.88 156.188V131.93H1128.8V156.188ZM1166.93 174L1150.37 152.525V174H1137.69V131.93H1149.35L1165.96 153.551V131.93H1178.56V174H1166.93ZM1188.03 174V131.93H1201.98V174H1188.03ZM1234.6 142.916V174H1220.68V142.916H1208.73V131.93H1246.61V142.916H1234.6ZM1279.06 174H1265.14V161.227L1249.79 131.93H1263.65L1272.08 148.131L1280.26 131.93H1294.12L1279.06 160.934V174Z" fill="#DC3545"/>
<path d="M340.227 236V201.091H352.432C354.864 201.091 356.869 201.511 358.449 202.352C360.028 203.182 361.205 204.301 361.977 205.71C362.75 207.108 363.136 208.659 363.136 210.364C363.136 211.864 362.869 213.102 362.335 214.08C361.813 215.057 361.119 215.83 360.256 216.398C359.403 216.966 358.477 217.386 357.477 217.659V218C358.545 218.068 359.619 218.443 360.699 219.125C361.778 219.807 362.682 220.784 363.409 222.057C364.136 223.33 364.5 224.886 364.5 226.727C364.5 228.477 364.102 230.051 363.307 231.449C362.511 232.847 361.256 233.955 359.54 234.773C357.824 235.591 355.591 236 352.841 236H340.227ZM344.455 232.25H352.841C355.602 232.25 357.563 231.716 358.722 230.648C359.892 229.568 360.477 228.261 360.477 226.727C360.477 225.545 360.176 224.455 359.574 223.455C358.972 222.443 358.114 221.636 357 221.034C355.886 220.42 354.568 220.114 353.045 220.114H344.455V232.25ZM344.455 216.432H352.295C353.568 216.432 354.716 216.182 355.739 215.682C356.773 215.182 357.591 214.477 358.193 213.568C358.807 212.659 359.114 211.591 359.114 210.364C359.114 208.83 358.58 207.528 357.511 206.46C356.443 205.381 354.75 204.841 352.432 204.841H344.455V216.432ZM381.878 236.545C379.355 236.545 377.179 235.989 375.349 234.875C373.531 233.75 372.128 232.182 371.139 230.17C370.162 228.148 369.673 225.795 369.673 223.114C369.673 220.432 370.162 218.068 371.139 216.023C372.128 213.966 373.503 212.364 375.264 211.216C377.037 210.057 379.105 209.477 381.469 209.477C382.832 209.477 384.179 209.705 385.509 210.159C386.838 210.614 388.048 211.352 389.139 212.375C390.23 213.386 391.099 214.727 391.747 216.398C392.395 218.068 392.719 220.125 392.719 222.568V224.273H372.537V220.795H388.628C388.628 219.318 388.332 218 387.741 216.841C387.162 215.682 386.332 214.767 385.253 214.097C384.185 213.426 382.923 213.091 381.469 213.091C379.866 213.091 378.48 213.489 377.31 214.284C376.151 215.068 375.259 216.091 374.634 217.352C374.009 218.614 373.696 219.966 373.696 221.409V223.727C373.696 225.705 374.037 227.381 374.719 228.756C375.412 230.119 376.372 231.159 377.599 231.875C378.827 232.58 380.253 232.932 381.878 232.932C382.935 232.932 383.889 232.784 384.741 232.489C385.605 232.182 386.349 231.727 386.974 231.125C387.599 230.511 388.082 229.75 388.423 228.841L392.31 229.932C391.901 231.25 391.213 232.409 390.247 233.409C389.281 234.398 388.088 235.17 386.668 235.727C385.247 236.273 383.651 236.545 381.878 236.545ZM398.838 236V209.818H402.861V236H398.838ZM400.884 205.455C400.099 205.455 399.423 205.188 398.855 204.653C398.298 204.119 398.02 203.477 398.02 202.727C398.02 201.977 398.298 201.335 398.855 200.801C399.423 200.267 400.099 200 400.884 200C401.668 200 402.338 200.267 402.895 200.801C403.463 201.335 403.747 201.977 403.747 202.727C403.747 203.477 403.463 204.119 402.895 204.653C402.338 205.188 401.668 205.455 400.884 205.455ZM410.229 209.818H414.251V237.909C414.251 239.523 413.973 240.92 413.416 242.102C412.871 243.284 412.041 244.199 410.928 244.847C409.825 245.494 408.433 245.818 406.751 245.818C406.615 245.818 406.479 245.818 406.342 245.818C406.206 245.818 406.07 245.818 405.933 245.818V242.068C406.07 242.068 406.195 242.068 406.308 242.068C406.422 242.068 406.547 242.068 406.683 242.068C407.911 242.068 408.808 241.705 409.376 240.977C409.945 240.261 410.229 239.239 410.229 237.909V209.818ZM412.206 205.455C411.422 205.455 410.746 205.188 410.178 204.653C409.621 204.119 409.342 203.477 409.342 202.727C409.342 201.977 409.621 201.335 410.178 200.801C410.746 200.267 411.422 200 412.206 200C412.99 200 413.661 200.267 414.217 200.801C414.786 201.335 415.07 201.977 415.07 202.727C415.07 203.477 414.786 204.119 414.217 204.653C413.661 205.188 412.99 205.455 412.206 205.455ZM421.619 236V209.818H425.642V236H421.619ZM423.665 205.455C422.881 205.455 422.205 205.188 421.636 204.653C421.08 204.119 420.801 203.477 420.801 202.727C420.801 201.977 421.08 201.335 421.636 200.801C422.205 200.267 422.881 200 423.665 200C424.449 200 425.119 200.267 425.676 200.801C426.244 201.335 426.528 201.977 426.528 202.727C426.528 203.477 426.244 204.119 425.676 204.653C425.119 205.188 424.449 205.455 423.665 205.455ZM437.033 220.25V236H433.01V209.818H436.896V213.909H437.237C437.851 212.58 438.783 211.511 440.033 210.705C441.283 209.886 442.896 209.477 444.874 209.477C446.646 209.477 448.197 209.841 449.527 210.568C450.857 211.284 451.891 212.375 452.629 213.841C453.368 215.295 453.737 217.136 453.737 219.364V236H449.714V219.636C449.714 217.58 449.18 215.977 448.112 214.83C447.044 213.67 445.578 213.091 443.714 213.091C442.43 213.091 441.283 213.369 440.271 213.926C439.271 214.483 438.482 215.295 437.902 216.364C437.322 217.432 437.033 218.727 437.033 220.25ZM471.656 246.364C469.713 246.364 468.043 246.114 466.645 245.614C465.247 245.125 464.082 244.477 463.151 243.67C462.23 242.875 461.497 242.023 460.952 241.114L464.156 238.864C464.52 239.341 464.98 239.886 465.537 240.5C466.094 241.125 466.855 241.665 467.821 242.119C468.798 242.585 470.077 242.818 471.656 242.818C473.77 242.818 475.514 242.307 476.889 241.284C478.264 240.261 478.952 238.659 478.952 236.477V231.159H478.611C478.315 231.636 477.895 232.227 477.349 232.932C476.815 233.625 476.043 234.244 475.031 234.79C474.031 235.324 472.679 235.591 470.974 235.591C468.861 235.591 466.963 235.091 465.281 234.091C463.611 233.091 462.287 231.636 461.31 229.727C460.344 227.818 459.861 225.5 459.861 222.773C459.861 220.091 460.332 217.756 461.276 215.767C462.219 213.767 463.531 212.222 465.213 211.131C466.895 210.028 468.838 209.477 471.043 209.477C472.747 209.477 474.099 209.761 475.099 210.33C476.111 210.886 476.884 211.523 477.418 212.239C477.963 212.943 478.384 213.523 478.679 213.977H479.088V209.818H482.974V236.75C482.974 239 482.463 240.83 481.44 242.239C480.429 243.659 479.065 244.699 477.349 245.358C475.645 246.028 473.747 246.364 471.656 246.364ZM471.52 231.977C473.134 231.977 474.497 231.608 475.611 230.869C476.724 230.131 477.571 229.068 478.151 227.682C478.73 226.295 479.02 224.636 479.02 222.705C479.02 220.818 478.736 219.153 478.168 217.71C477.599 216.267 476.759 215.136 475.645 214.318C474.531 213.5 473.156 213.091 471.52 213.091C469.815 213.091 468.395 213.523 467.259 214.386C466.134 215.25 465.287 216.409 464.719 217.864C464.162 219.318 463.884 220.932 463.884 222.705C463.884 224.523 464.168 226.131 464.736 227.528C465.315 228.915 466.168 230.006 467.293 230.801C468.429 231.585 469.838 231.977 471.52 231.977ZM532.474 212H528.247C527.997 210.784 527.56 209.716 526.935 208.795C526.321 207.875 525.571 207.102 524.685 206.477C523.81 205.841 522.838 205.364 521.77 205.045C520.702 204.727 519.588 204.568 518.429 204.568C516.315 204.568 514.401 205.102 512.685 206.17C510.98 207.239 509.622 208.812 508.611 210.892C507.611 212.972 507.111 215.523 507.111 218.545C507.111 221.568 507.611 224.119 508.611 226.199C509.622 228.278 510.98 229.852 512.685 230.92C514.401 231.989 516.315 232.523 518.429 232.523C519.588 232.523 520.702 232.364 521.77 232.045C522.838 231.727 523.81 231.256 524.685 230.631C525.571 229.994 526.321 229.216 526.935 228.295C527.56 227.364 527.997 226.295 528.247 225.091H532.474C532.156 226.875 531.577 228.472 530.736 229.881C529.895 231.29 528.849 232.489 527.599 233.477C526.349 234.455 524.946 235.199 523.389 235.71C521.844 236.222 520.19 236.477 518.429 236.477C515.452 236.477 512.804 235.75 510.486 234.295C508.168 232.841 506.344 230.773 505.014 228.091C503.685 225.409 503.02 222.227 503.02 218.545C503.02 214.864 503.685 211.682 505.014 209C506.344 206.318 508.168 204.25 510.486 202.795C512.804 201.341 515.452 200.614 518.429 200.614C520.19 200.614 521.844 200.869 523.389 201.381C524.946 201.892 526.349 202.642 527.599 203.631C528.849 204.608 529.895 205.801 530.736 207.21C531.577 208.608 532.156 210.205 532.474 212ZM542.783 220.25V236H538.76V201.091H542.783V213.909H543.124C543.737 212.557 544.658 211.483 545.885 210.688C547.124 209.881 548.771 209.477 550.828 209.477C552.612 209.477 554.175 209.835 555.516 210.551C556.857 211.256 557.896 212.341 558.635 213.807C559.385 215.261 559.76 217.114 559.76 219.364V236H555.737V219.636C555.737 217.557 555.197 215.949 554.118 214.812C553.05 213.665 551.567 213.091 549.669 213.091C548.351 213.091 547.169 213.369 546.124 213.926C545.089 214.483 544.271 215.295 543.669 216.364C543.078 217.432 542.783 218.727 542.783 220.25ZM574.824 236.614C573.165 236.614 571.659 236.301 570.307 235.676C568.955 235.04 567.881 234.125 567.085 232.932C566.29 231.727 565.892 230.273 565.892 228.568C565.892 227.068 566.188 225.852 566.778 224.92C567.369 223.977 568.159 223.239 569.148 222.705C570.136 222.17 571.227 221.773 572.42 221.511C573.625 221.239 574.835 221.023 576.051 220.864C577.642 220.659 578.932 220.506 579.92 220.403C580.92 220.29 581.648 220.102 582.102 219.841C582.568 219.58 582.801 219.125 582.801 218.477V218.341C582.801 216.659 582.341 215.352 581.42 214.42C580.511 213.489 579.131 213.023 577.278 213.023C575.358 213.023 573.852 213.443 572.761 214.284C571.67 215.125 570.903 216.023 570.46 216.977L566.642 215.614C567.324 214.023 568.233 212.784 569.369 211.898C570.517 211 571.767 210.375 573.119 210.023C574.483 209.659 575.824 209.477 577.142 209.477C577.983 209.477 578.949 209.58 580.04 209.784C581.142 209.977 582.205 210.381 583.227 210.994C584.261 211.608 585.119 212.534 585.801 213.773C586.483 215.011 586.824 216.67 586.824 218.75V236H582.801V232.455H582.597C582.324 233.023 581.869 233.631 581.233 234.278C580.597 234.926 579.75 235.477 578.693 235.932C577.636 236.386 576.347 236.614 574.824 236.614ZM575.438 233C577.028 233 578.369 232.688 579.46 232.062C580.563 231.438 581.392 230.631 581.949 229.642C582.517 228.653 582.801 227.614 582.801 226.523V222.841C582.631 223.045 582.256 223.233 581.676 223.403C581.108 223.562 580.449 223.705 579.699 223.83C578.96 223.943 578.239 224.045 577.534 224.136C576.841 224.216 576.278 224.284 575.847 224.341C574.801 224.477 573.824 224.699 572.915 225.006C572.017 225.301 571.29 225.75 570.733 226.352C570.188 226.943 569.915 227.75 569.915 228.773C569.915 230.17 570.432 231.227 571.466 231.943C572.511 232.648 573.835 233 575.438 233ZM594.166 245.818V209.818H598.053V213.977H598.53C598.825 213.523 599.234 212.943 599.757 212.239C600.291 211.523 601.053 210.886 602.041 210.33C603.041 209.761 604.393 209.477 606.098 209.477C608.303 209.477 610.246 210.028 611.928 211.131C613.609 212.233 614.922 213.795 615.865 215.818C616.808 217.841 617.28 220.227 617.28 222.977C617.28 225.75 616.808 228.153 615.865 230.188C614.922 232.21 613.615 233.778 611.945 234.892C610.274 235.994 608.348 236.545 606.166 236.545C604.484 236.545 603.138 236.267 602.126 235.71C601.115 235.142 600.337 234.5 599.791 233.784C599.246 233.057 598.825 232.455 598.53 231.977H598.189V245.818H594.166ZM598.121 222.909C598.121 224.886 598.411 226.631 598.99 228.142C599.57 229.642 600.416 230.818 601.53 231.67C602.643 232.511 604.007 232.932 605.621 232.932C607.303 232.932 608.706 232.489 609.831 231.602C610.967 230.705 611.82 229.5 612.388 227.989C612.967 226.466 613.257 224.773 613.257 222.909C613.257 221.068 612.973 219.409 612.405 217.932C611.848 216.443 611.001 215.267 609.865 214.403C608.74 213.528 607.325 213.091 605.621 213.091C603.984 213.091 602.609 213.506 601.496 214.335C600.382 215.153 599.541 216.301 598.973 217.778C598.405 219.244 598.121 220.955 598.121 222.909ZM634.803 209.818V213.227H621.234V209.818H634.803ZM625.189 203.545H629.212V228.5C629.212 229.636 629.376 230.489 629.706 231.057C630.047 231.614 630.479 231.989 631.001 232.182C631.536 232.364 632.098 232.455 632.689 232.455C633.132 232.455 633.496 232.432 633.78 232.386C634.064 232.33 634.291 232.284 634.462 232.25L635.28 235.864C635.007 235.966 634.626 236.068 634.138 236.17C633.649 236.284 633.03 236.341 632.28 236.341C631.143 236.341 630.03 236.097 628.939 235.608C627.859 235.119 626.962 234.375 626.246 233.375C625.541 232.375 625.189 231.114 625.189 229.591V203.545ZM651.55 236.545C649.027 236.545 646.851 235.989 645.021 234.875C643.203 233.75 641.8 232.182 640.811 230.17C639.834 228.148 639.345 225.795 639.345 223.114C639.345 220.432 639.834 218.068 640.811 216.023C641.8 213.966 643.175 212.364 644.936 211.216C646.709 210.057 648.777 209.477 651.141 209.477C652.504 209.477 653.851 209.705 655.18 210.159C656.51 210.614 657.72 211.352 658.811 212.375C659.902 213.386 660.771 214.727 661.419 216.398C662.067 218.068 662.391 220.125 662.391 222.568V224.273H642.209V220.795H658.3C658.3 219.318 658.004 218 657.413 216.841C656.834 215.682 656.004 214.767 654.925 214.097C653.857 213.426 652.595 213.091 651.141 213.091C649.538 213.091 648.152 213.489 646.982 214.284C645.822 215.068 644.93 216.091 644.305 217.352C643.68 218.614 643.368 219.966 643.368 221.409V223.727C643.368 225.705 643.709 227.381 644.391 228.756C645.084 230.119 646.044 231.159 647.271 231.875C648.499 232.58 649.925 232.932 651.55 232.932C652.607 232.932 653.561 232.784 654.413 232.489C655.277 232.182 656.021 231.727 656.646 231.125C657.271 230.511 657.754 229.75 658.095 228.841L661.982 229.932C661.572 231.25 660.885 232.409 659.919 233.409C658.953 234.398 657.76 235.17 656.339 235.727C654.919 236.273 653.322 236.545 651.55 236.545ZM668.51 236V209.818H672.396V213.773H672.669C673.146 212.477 674.01 211.426 675.26 210.619C676.51 209.812 677.919 209.409 679.487 209.409C679.783 209.409 680.152 209.415 680.595 209.426C681.038 209.437 681.374 209.455 681.601 209.477V213.568C681.464 213.534 681.152 213.483 680.663 213.415C680.186 213.335 679.68 213.295 679.146 213.295C677.874 213.295 676.737 213.562 675.737 214.097C674.749 214.619 673.964 215.347 673.385 216.278C672.817 217.199 672.533 218.25 672.533 219.432V236H668.51Z" fill="black"/>
</svg>
