<svg width="1000" height="1000" viewBox="0 0 1000 1000" fill="none" xmlns="http://www.w3.org/2000/svg">
<rect width="1000" height="1000" fill="white"/>
<g filter="url(#filter0_b_303_381)">
<rect width="1000" height="1000" fill="#0091FF"/>
</g>
<path d="M228.231 750.76H239.991L261.531 778.42H261.651V750.76H273.411V796H261.651L240.111 768.28H239.991V796H228.231V750.76ZM312.462 782.44H289.482C289.482 784.68 290.042 786.38 291.162 787.54C292.322 788.7 294.042 789.28 296.322 789.28C297.482 789.28 298.482 789.08 299.322 788.68C300.202 788.24 300.942 787.5 301.542 786.46H312.042C311.602 788.26 310.862 789.84 309.822 791.2C308.822 792.52 307.602 793.62 306.162 794.5C304.762 795.34 303.222 795.96 301.542 796.36C299.862 796.8 298.142 797.02 296.382 797.02C293.822 797.02 291.442 796.66 289.242 795.94C287.082 795.22 285.202 794.18 283.602 792.82C282.042 791.42 280.802 789.7 279.882 787.66C279.002 785.62 278.562 783.28 278.562 780.64C278.562 778.08 278.982 775.78 279.822 773.74C280.662 771.7 281.822 769.98 283.302 768.58C284.822 767.18 286.622 766.1 288.702 765.34C290.782 764.58 293.082 764.2 295.602 764.2C298.282 764.2 300.662 764.6 302.742 765.4C304.822 766.2 306.582 767.34 308.022 768.82C309.462 770.3 310.562 772.1 311.322 774.22C312.082 776.3 312.462 778.66 312.462 781.3V782.44ZM302.322 776.14C302.042 774.66 301.302 773.48 300.102 772.6C298.942 771.72 297.622 771.28 296.142 771.28C294.542 771.28 293.142 771.7 291.942 772.54C290.742 773.34 289.982 774.54 289.662 776.14H302.322ZM334.683 773.68C333.563 773.68 332.563 773.88 331.683 774.28C330.843 774.64 330.123 775.14 329.523 775.78C328.923 776.38 328.463 777.1 328.143 777.94C327.823 778.78 327.663 779.68 327.663 780.64C327.663 782.6 328.263 784.24 329.463 785.56C330.703 786.88 332.443 787.54 334.683 787.54C336.923 787.54 338.643 786.88 339.843 785.56C341.083 784.24 341.703 782.6 341.703 780.64C341.703 779.68 341.543 778.78 341.223 777.94C340.903 777.1 340.443 776.38 339.843 775.78C339.243 775.14 338.503 774.64 337.623 774.28C336.783 773.88 335.803 773.68 334.683 773.68ZM317.103 746.2H328.023V768.22C329.183 766.86 330.603 765.86 332.283 765.22C334.003 764.54 335.763 764.2 337.563 764.2C339.843 764.2 341.923 764.64 343.803 765.52C345.723 766.4 347.343 767.6 348.663 769.12C350.023 770.6 351.083 772.34 351.843 774.34C352.603 776.3 352.983 778.38 352.983 780.58C352.983 782.82 352.603 784.94 351.843 786.94C351.083 788.9 350.023 790.64 348.663 792.16C347.303 793.64 345.663 794.82 343.743 795.7C341.823 796.58 339.723 797.02 337.443 797.02C335.643 797.02 333.883 796.66 332.163 795.94C330.483 795.22 329.143 794.1 328.143 792.58H328.023V796H317.103V746.2ZM369.102 765.22V781.66C369.102 782.62 369.162 783.52 369.282 784.36C369.442 785.16 369.722 785.86 370.122 786.46C370.522 787.06 371.082 787.52 371.802 787.84C372.522 788.16 373.442 788.32 374.562 788.32C375.682 788.32 376.602 788.16 377.322 787.84C378.042 787.52 378.602 787.06 379.002 786.46C379.402 785.86 379.662 785.16 379.782 784.36C379.942 783.52 380.022 782.62 380.022 781.66V765.22H390.942V783.76C390.942 786.28 390.522 788.4 389.682 790.12C388.842 791.8 387.682 793.16 386.202 794.2C384.722 795.2 382.982 795.92 380.982 796.36C379.022 796.8 376.882 797.02 374.562 797.02C372.242 797.02 370.082 796.8 368.082 796.36C366.082 795.92 364.342 795.2 362.862 794.2C361.422 793.16 360.282 791.8 359.442 790.12C358.602 788.4 358.182 786.28 358.182 783.76V765.22H369.102ZM408.833 796H397.913V746.2H408.833V796ZM449.678 796H438.758V792.58H438.638C437.678 794.1 436.338 795.22 434.618 795.94C432.898 796.66 431.138 797.02 429.338 797.02C427.058 797.02 424.958 796.58 423.038 795.7C421.158 794.82 419.518 793.64 418.118 792.16C416.758 790.64 415.698 788.88 414.938 786.88C414.178 784.88 413.798 782.78 413.798 780.58C413.798 778.38 414.178 776.3 414.938 774.34C415.698 772.34 416.738 770.6 418.058 769.12C419.418 767.6 421.038 766.4 422.918 765.52C424.838 764.64 426.938 764.2 429.218 764.2C431.018 764.2 432.758 764.54 434.438 765.22C436.158 765.86 437.598 766.86 438.758 768.22V765.22H449.678V796ZM432.098 773.68C430.978 773.68 429.978 773.88 429.098 774.28C428.258 774.64 427.538 775.14 426.938 775.78C426.338 776.38 425.878 777.1 425.558 777.94C425.238 778.78 425.078 779.68 425.078 780.64C425.078 782.6 425.678 784.24 426.878 785.56C428.118 786.88 429.858 787.54 432.098 787.54C434.338 787.54 436.058 786.88 437.258 785.56C438.498 784.24 439.118 782.6 439.118 780.64C439.118 779.68 438.958 778.78 438.638 777.94C438.318 777.1 437.858 776.38 437.258 775.78C436.658 775.14 435.918 774.64 435.038 774.28C434.198 773.88 433.218 773.68 432.098 773.68ZM522.843 770.74C522.803 772.38 522.723 773.98 522.603 775.54C522.523 777.06 522.323 778.56 522.003 780.04C521.683 781.52 521.223 782.98 520.623 784.42C520.023 785.82 519.223 787.22 518.223 788.62C515.983 791.74 513.263 794 510.063 795.4C506.863 796.8 503.363 797.5 499.563 797.5C496.003 797.5 492.743 796.92 489.783 795.76C486.823 794.6 484.283 792.98 482.163 790.9C480.043 788.78 478.383 786.26 477.183 783.34C476.023 780.42 475.443 777.18 475.443 773.62C475.443 769.94 476.023 766.6 477.183 763.6C478.383 760.6 480.063 758.04 482.223 755.92C484.383 753.8 486.963 752.16 489.963 751C493.003 749.84 496.343 749.26 499.983 749.26C504.663 749.26 508.743 750.32 512.223 752.44C515.703 754.52 518.423 757.68 520.383 761.92L509.223 766.6C508.423 764.44 507.183 762.7 505.503 761.38C503.863 760.06 501.843 759.4 499.443 759.4C497.523 759.4 495.823 759.82 494.343 760.66C492.863 761.5 491.623 762.6 490.623 763.96C489.663 765.32 488.923 766.86 488.403 768.58C487.923 770.26 487.683 771.96 487.683 773.68C487.683 775.44 487.943 777.18 488.463 778.9C488.983 780.58 489.743 782.08 490.743 783.4C491.743 784.72 492.983 785.8 494.463 786.64C495.983 787.44 497.703 787.84 499.623 787.84C502.183 787.84 504.343 787.2 506.103 785.92C507.863 784.6 508.863 782.62 509.103 779.98H499.503V770.74H522.843ZM538.911 770.26H539.031C540.071 768.34 541.451 766.96 543.171 766.12C544.891 765.24 546.831 764.8 548.991 764.8H551.091V775.3C550.331 774.86 549.571 774.58 548.811 774.46C548.091 774.34 547.311 774.28 546.471 774.28C544.951 774.28 543.691 774.52 542.691 775C541.731 775.48 540.971 776.14 540.411 776.98C539.851 777.78 539.451 778.76 539.211 779.92C539.011 781.04 538.911 782.26 538.911 783.58V796H527.991V765.22H538.911V770.26ZM588.838 796H577.918V792.58H577.798C576.838 794.1 575.498 795.22 573.778 795.94C572.058 796.66 570.298 797.02 568.498 797.02C566.218 797.02 564.118 796.58 562.198 795.7C560.318 794.82 558.678 793.64 557.278 792.16C555.918 790.64 554.858 788.88 554.098 786.88C553.338 784.88 552.958 782.78 552.958 780.58C552.958 778.38 553.338 776.3 554.098 774.34C554.858 772.34 555.898 770.6 557.218 769.12C558.578 767.6 560.198 766.4 562.078 765.52C563.998 764.64 566.098 764.2 568.378 764.2C570.178 764.2 571.918 764.54 573.598 765.22C575.318 765.86 576.758 766.86 577.918 768.22V765.22H588.838V796ZM571.258 773.68C570.138 773.68 569.138 773.88 568.258 774.28C567.418 774.64 566.698 775.14 566.098 775.78C565.498 776.38 565.038 777.1 564.718 777.94C564.398 778.78 564.238 779.68 564.238 780.64C564.238 782.6 564.838 784.24 566.038 785.56C567.278 786.88 569.018 787.54 571.258 787.54C573.498 787.54 575.218 786.88 576.418 785.56C577.658 784.24 578.278 782.6 578.278 780.64C578.278 779.68 578.118 778.78 577.798 777.94C577.478 777.1 577.018 776.38 576.418 775.78C575.818 775.14 575.078 774.64 574.198 774.28C573.358 773.88 572.378 773.68 571.258 773.68ZM613.297 773.68C612.177 773.68 611.177 773.88 610.297 774.28C609.457 774.64 608.737 775.14 608.137 775.78C607.537 776.38 607.077 777.1 606.757 777.94C606.437 778.78 606.277 779.68 606.277 780.64C606.277 782.6 606.877 784.24 608.077 785.56C609.317 786.88 611.057 787.54 613.297 787.54C615.537 787.54 617.257 786.88 618.457 785.56C619.697 784.24 620.317 782.6 620.317 780.64C620.317 779.68 620.157 778.78 619.837 777.94C619.517 777.1 619.057 776.38 618.457 775.78C617.857 775.14 617.117 774.64 616.237 774.28C615.397 773.88 614.417 773.68 613.297 773.68ZM606.637 768.7H606.757C607.757 767.18 609.097 766.06 610.777 765.34C612.497 764.58 614.257 764.2 616.057 764.2C618.337 764.2 620.437 764.66 622.357 765.58C624.277 766.46 625.917 767.66 627.277 769.18C628.637 770.66 629.697 772.4 630.457 774.4C631.217 776.4 631.597 778.5 631.597 780.7C631.597 782.94 631.217 785.04 630.457 787C629.697 788.96 628.637 790.7 627.277 792.22C625.957 793.7 624.337 794.88 622.417 795.76C620.537 796.6 618.457 797.02 616.177 797.02C614.377 797.02 612.617 796.7 610.897 796.06C609.217 795.42 607.797 794.42 606.637 793.06V811.36H595.717V765.22H606.637V768.7ZM647.895 746.2V769.12H648.015C649.295 767.44 650.715 766.2 652.275 765.4C653.835 764.6 655.695 764.2 657.855 764.2C659.815 764.2 661.515 764.52 662.955 765.16C664.395 765.76 665.595 766.64 666.555 767.8C667.515 768.92 668.235 770.28 668.715 771.88C669.195 773.44 669.435 775.2 669.435 777.16V796H658.515V780.22C658.515 779.34 658.455 778.46 658.335 777.58C658.255 776.7 658.035 775.92 657.675 775.24C657.355 774.52 656.855 773.96 656.175 773.56C655.535 773.12 654.675 772.9 653.595 772.9C652.515 772.9 651.615 773.12 650.895 773.56C650.175 773.96 649.575 774.52 649.095 775.24C648.655 775.92 648.335 776.7 648.135 777.58C647.975 778.46 647.895 779.34 647.895 780.22V796H636.975V746.2H647.895ZM704.529 784V789.58H743.649V784H704.529ZM706.089 774.34V780.28H746.349V774.34H706.089ZM697.149 793.66V799.84H750.249V793.66H697.149ZM720.069 770.68V797.98H727.569V770.68H720.069ZM709.989 760.9H736.629V764.08H709.989V760.9ZM709.989 752.62H736.629V755.8H709.989V752.62ZM702.969 747.16V769.6H744.129V747.16H702.969ZM706.029 769C703.869 773.86 699.909 778.72 695.769 781.84C697.449 782.86 700.389 785.02 701.769 786.34C705.909 782.68 710.409 776.86 713.109 771.04L706.029 769ZM755.889 749.62V756.28H776.109V749.62H755.889ZM775.449 755.14V761.74H811.929V755.14H775.449ZM756.369 766.36V773.02H775.449V766.36H756.369ZM754.749 787.3L756.609 794.08C762.489 792.28 769.989 789.88 777.009 787.48L776.049 781.42C768.309 783.64 760.089 785.98 754.749 787.3ZM789.669 745V793.24C789.669 794.2 789.309 794.5 788.409 794.5C787.449 794.5 784.629 794.56 781.689 794.44C782.709 796.3 783.909 799.42 784.149 801.34C788.649 801.34 791.709 801.1 793.809 799.9C795.909 798.7 796.629 796.78 796.629 793.24V745H789.669ZM771.489 788.68L775.149 795.1C779.349 792.46 784.449 789.04 788.949 785.8L786.789 779.86C781.209 783.22 775.329 786.76 771.489 788.68ZM775.989 766.9C778.269 770.26 780.669 774.82 781.569 777.7L787.449 774.94C786.489 772 783.849 767.62 781.569 764.44L775.989 766.9ZM805.449 763.78C803.769 767.2 800.829 771.76 798.549 774.58L803.649 777.46C806.049 774.82 809.049 770.8 811.749 767.08L805.449 763.78ZM798.849 749.02C801.609 750.94 805.029 753.76 806.649 755.74L810.789 751.6C809.109 749.68 805.569 746.98 802.749 745.3L798.849 749.02ZM762.609 752.38V788.38L769.569 787.3V752.38H762.609ZM796.389 762.46L790.449 763.54C793.089 778.84 797.349 788.38 808.509 796.84C809.349 794.92 811.269 792.64 812.949 791.32C802.809 784.42 798.729 776.26 796.389 762.46Z" fill="white"/>
<path d="M499.02 187.817C527.235 187.785 554.31 198.933 574.3 218.814C593.53 237.893 605.559 264.127 605.559 293.463V389.657C605.532 403.523 602.755 417.246 597.39 430.036C592.025 442.825 584.178 454.428 574.3 464.174C554.345 484.026 527.323 495.172 499.154 495.172C470.984 495.172 443.962 484.026 424.007 464.174L423.042 463.228C403.654 443.63 392.768 417.203 392.739 389.657V293.463C392.739 264.127 404.768 237.895 424.01 218.814C433.855 208.973 445.549 201.169 458.421 195.85C471.294 190.531 485.092 187.801 499.023 187.818L499.02 187.817ZM426.648 317.657H571.648V293.463C571.62 274.365 564.01 256.056 550.486 242.548C536.829 228.925 518.326 221.254 499.02 221.213C489.535 221.236 480.148 223.133 471.4 226.795C462.652 230.457 454.717 235.811 448.052 242.549C441.255 249.176 435.859 257.096 432.182 265.842C428.506 274.587 426.623 283.98 426.647 293.465L426.648 317.657ZM571.648 355.866H426.648V389.657C426.609 408.465 434.048 426.52 447.332 439.856L448.053 440.461C454.718 447.183 462.658 452.511 471.409 456.132C480.16 459.754 489.547 461.598 499.02 461.555C508.568 461.6 518.031 459.76 526.863 456.14C535.696 452.52 543.724 447.191 550.486 440.461C564.005 426.996 571.617 408.723 571.648 389.658V355.866ZM398.761 624.41H599.778C604.194 624.384 608.42 622.615 611.534 619.488C614.648 616.362 616.395 612.132 616.395 607.723C616.395 603.314 614.648 599.084 611.534 595.957C608.42 592.831 604.194 591.061 599.778 591.036H516.098V550.729C545.26 547.685 573.063 536.857 596.588 519.383C620.112 501.909 638.489 478.433 649.79 451.421C657.968 432.352 662.175 411.489 662.175 389.657V341.372C662.124 336.933 660.322 332.694 657.16 329.574C653.999 326.453 649.732 324.703 645.286 324.703C640.84 324.703 636.574 326.453 633.412 329.574C630.25 332.694 628.448 336.933 628.397 341.372V389.657C628.334 406.522 624.934 423.208 618.393 438.757C611.851 454.305 602.297 468.41 590.279 480.261C566.048 504.362 533.223 517.87 499.02 517.817C482.209 517.823 465.555 514.587 449.973 508.288C434.28 501.719 419.996 492.205 407.895 480.261C395.795 468.322 386.191 454.102 379.643 438.426C373.13 422.993 369.816 406.404 369.9 389.657V341.372C369.865 336.917 368.062 332.659 364.885 329.531C361.707 326.403 357.417 324.663 352.955 324.691C343.69 324.691 336 332.195 336 341.372V389.657C336.047 410.867 340.297 431.858 348.506 451.421C356.737 471.081 368.744 488.942 383.849 503.996C398.995 518.785 416.905 530.944 436.868 539.043C451.317 545.109 466.598 548.967 482.198 550.487V591.036H398.762C389.385 591.036 381.685 598.421 381.685 607.717C381.685 617.005 389.385 624.41 398.762 624.41H398.761Z" fill="white"/>
<circle cx="500" cy="335" r="48" fill="white"/>
<path fill-rule="evenodd" clip-rule="evenodd" d="M478.722 315.065H489.206L493.954 321.162H478.722V315.065ZM500.619 329.721L496.454 324.372H478.722V329.721H500.619ZM503.119 332.93L507.284 338.279H495.215L491.058 332.93H503.119ZM519 338.279H508.516V332.93H519V338.279ZM497.709 341.489H519V346.838H501.865L497.709 341.489ZM489.206 346.838V341.489H478.722V346.838H489.206ZM478.722 350.047H489.206V355.396H478.722V350.047ZM504.359 350.047H519V355.396H508.516L504.359 350.047ZM489.206 332.93V338.279H478.722V332.93H489.206ZM519 329.721H508.516V324.372H519V329.721ZM508.516 321.162H519V315.065H508.516V321.162Z" fill="#0091FF"/>
<path d="M615.236 155.461L687.261 113.211L653.549 154.915L668.144 188.16L610.421 228.142L637.622 179.043L615.236 155.461Z" fill="white"/>
<path d="M703.636 230.919L741.326 189.459L707.887 208.046L685.408 198.083L650.792 231.081L688.902 216.662L703.636 230.919Z" fill="white"/>
<defs>
<filter id="filter0_b_303_381" x="-30" y="-30" width="1060" height="1060" filterUnits="userSpaceOnUse" color-interpolation-filters="sRGB">
<feFlood flood-opacity="0" result="BackgroundImageFix"/>
<feGaussianBlur in="BackgroundImage" stdDeviation="15"/>
<feComposite in2="SourceAlpha" operator="in" result="effect1_backgroundBlur_303_381"/>
<feBlend mode="normal" in="SourceGraphic" in2="effect1_backgroundBlur_303_381" result="shape"/>
</filter>
</defs>
</svg>
